<svg xmlns="http://www.w3.org/2000/svg" viewBox="0 0 1100 680" width="1100" height="680">
  <!-- Window background -->
  <rect width="1100" height="680" fill="#e8eaed" rx="8"/>

  <!-- Browser chrome -->
  <rect x="0" y="0" width="1100" height="36" fill="#dee1e6" rx="8"/>
  <rect x="0" y="26" width="1100" height="10" fill="#dee1e6"/>
  <circle cx="18" cy="18" r="6" fill="#ff5f56"/>
  <circle cx="36" cy="18" r="6" fill="#ffbd2e"/>
  <circle cx="54" cy="18" r="6" fill="#27c93f"/>
  <rect x="200" y="8" width="700" height="20" fill="#f0f2f5" rx="10"/>
  <text x="550" y="22" font-family="ui-monospace,monospace" font-size="11" fill="#57606a" text-anchor="middle">omarrao.github.io/github-gdrive-backup/</text>

  <!-- Page background -->
  <rect x="0" y="36" width="1100" height="644" fill="#f6f8fa"/>

  <!-- Sidebar -->
  <rect x="0" y="36" width="230" height="644" fill="#ffffff" stroke="#d0d7de" stroke-width="1"/>
  <text x="16" y="72" font-family="-apple-system,BlinkMacSystemFont,sans-serif" font-size="13" font-weight="700" fill="#24292f">🗄️ GH→Drive Backup</text>

  <!-- Nav: Dashboard -->
  <text x="18" y="110" font-family="-apple-system,BlinkMacSystemFont,sans-serif" font-size="13" fill="#57606a">⊞</text>
  <text x="36" y="110" font-family="-apple-system,BlinkMacSystemFont,sans-serif" font-size="13" fill="#57606a">Dashboard</text>

  <!-- Backup (active) -->
  <rect x="8" y="120" width="214" height="34" fill="#0969da" rx="6"/>
  <text x="18" y="142" font-family="-apple-system,BlinkMacSystemFont,sans-serif" font-size="13" fill="#ffffff">☁</text>
  <text x="36" y="142" font-family="-apple-system,BlinkMacSystemFont,sans-serif" font-size="13" font-weight="600" fill="#ffffff">Backup</text>

  <!-- Restore -->
  <text x="18" y="182" font-family="-apple-system,BlinkMacSystemFont,sans-serif" font-size="13" fill="#57606a">↺</text>
  <text x="36" y="182" font-family="-apple-system,BlinkMacSystemFont,sans-serif" font-size="13" fill="#57606a">Restore</text>

  <!-- Workflow Runs -->
  <text x="18" y="216" font-family="-apple-system,BlinkMacSystemFont,sans-serif" font-size="13" fill="#57606a">▶</text>
  <text x="36" y="216" font-family="-apple-system,BlinkMacSystemFont,sans-serif" font-size="13" fill="#57606a">Workflow Runs</text>

  <!-- Settings -->
  <text x="18" y="250" font-family="-apple-system,BlinkMacSystemFont,sans-serif" font-size="13" fill="#57606a">⚙</text>
  <text x="36" y="250" font-family="-apple-system,BlinkMacSystemFont,sans-serif" font-size="13" fill="#57606a">Settings</text>

  <!-- Sidebar footer -->
  <line x1="0" y1="642" x2="230" y2="642" stroke="#d0d7de" stroke-width="1"/>
  <text x="14" y="657" font-family="-apple-system,BlinkMacSystemFont,sans-serif" font-size="9" fill="#8b949e">Built by Omar Rao</text>
  <text x="14" y="670" font-family="-apple-system,BlinkMacSystemFont,sans-serif" font-size="9" fill="#8b949e">Engineer — Data Resilience, Cybersecurity &amp; Privacy</text>

  <!-- Page title -->
  <text x="258" y="68" font-family="-apple-system,BlinkMacSystemFont,sans-serif" font-size="20" font-weight="700" fill="#24292f">Backup GitHub → Drive</text>

  <!-- Success notice -->
  <rect x="246" y="78" width="838" height="32" fill="#dafbe1" stroke="#1a7f37" stroke-width="1" rx="6"/>
  <text x="266" y="98" font-family="-apple-system,BlinkMacSystemFont,sans-serif" font-size="12" fill="#1a7f37">✅  Google Drive connected — backing up to folder: 1BkX9mQzR4TvWxYpLnDoUeFs3HjKiAaCbGdEf</text>

  <!-- Left card: Select Repositories -->
  <rect x="246" y="120" width="398" height="496" fill="#ffffff" stroke="#d0d7de" stroke-width="1" rx="6"/>
  <text x="266" y="148" font-family="-apple-system,BlinkMacSystemFont,sans-serif" font-size="14" font-weight="600" fill="#24292f">Select Repositories</text>

  <!-- Search input -->
  <rect x="262" y="158" width="362" height="30" fill="#f6f8fa" stroke="#d0d7de" stroke-width="1" rx="6"/>
  <text x="278" y="177" font-family="-apple-system,BlinkMacSystemFont,sans-serif" font-size="12" fill="#8b949e">🔍  Search repositories…</text>

  <!-- Repo rows -->
  <!-- Row 1 -->
  <line x1="246" y1="196" x2="644" y2="196" stroke="#d0d7de" stroke-width="1"/>
  <rect x="266" y="205" width="12" height="12" fill="#0969da" rx="2"/>
  <text x="286" y="217" font-family="-apple-system,BlinkMacSystemFont,sans-serif" font-size="12" font-weight="600" fill="#24292f">github-gdrive-backup</text>
  <rect x="510" y="206" width="44" height="14" fill="#ddf4ff" stroke="#54aeff" stroke-width="1" rx="10"/>
  <text x="532" y="217" font-family="-apple-system,BlinkMacSystemFont,sans-serif" font-size="9" fill="#0969da" text-anchor="middle">public</text>

  <!-- Row 2 -->
  <line x1="246" y1="228" x2="644" y2="228" stroke="#d0d7de" stroke-width="1"/>
  <rect x="266" y="237" width="12" height="12" fill="#0969da" rx="2"/>
  <text x="286" y="249" font-family="-apple-system,BlinkMacSystemFont,sans-serif" font-size="12" fill="#24292f">portfolio-site</text>
  <rect x="510" y="238" width="44" height="14" fill="#ddf4ff" stroke="#54aeff" stroke-width="1" rx="10"/>
  <text x="532" y="249" font-family="-apple-system,BlinkMacSystemFont,sans-serif" font-size="9" fill="#0969da" text-anchor="middle">public</text>

  <!-- Row 3 (private) -->
  <line x1="246" y1="260" x2="644" y2="260" stroke="#d0d7de" stroke-width="1"/>
  <rect x="266" y="269" width="12" height="12" fill="#0969da" rx="2"/>
  <text x="286" y="281" font-family="-apple-system,BlinkMacSystemFont,sans-serif" font-size="12" fill="#24292f">veeam-scripts</text>
  <rect x="510" y="270" width="50" height="14" fill="#fff8c5" stroke="#d4a72c" stroke-width="1" rx="10"/>
  <text x="535" y="281" font-family="-apple-system,BlinkMacSystemFont,sans-serif" font-size="9" fill="#7d4e00" text-anchor="middle">🔒 private</text>

  <!-- Row 4 -->
  <line x1="246" y1="292" x2="644" y2="292" stroke="#d0d7de" stroke-width="1"/>
  <rect x="266" y="301" width="12" height="12" fill="none" stroke="#d0d7de" stroke-width="1" rx="2"/>
  <text x="286" y="313" font-family="-apple-system,BlinkMacSystemFont,sans-serif" font-size="12" fill="#24292f">api-playground</text>
  <rect x="510" y="302" width="44" height="14" fill="#ddf4ff" stroke="#54aeff" stroke-width="1" rx="10"/>
  <text x="532" y="313" font-family="-apple-system,BlinkMacSystemFont,sans-serif" font-size="9" fill="#0969da" text-anchor="middle">public</text>

  <!-- Row 5 -->
  <line x1="246" y1="324" x2="644" y2="324" stroke="#d0d7de" stroke-width="1"/>
  <rect x="266" y="333" width="12" height="12" fill="none" stroke="#d0d7de" stroke-width="1" rx="2"/>
  <text x="286" y="345" font-family="-apple-system,BlinkMacSystemFont,sans-serif" font-size="12" fill="#24292f">dotfiles</text>
  <rect x="510" y="334" width="44" height="14" fill="#ddf4ff" stroke="#54aeff" stroke-width="1" rx="10"/>
  <text x="532" y="345" font-family="-apple-system,BlinkMacSystemFont,sans-serif" font-size="9" fill="#0969da" text-anchor="middle">public</text>

  <line x1="246" y1="356" x2="644" y2="356" stroke="#d0d7de" stroke-width="1"/>

  <!-- Right card: Backup Options -->
  <rect x="658" y="120" width="426" height="496" fill="#ffffff" stroke="#d0d7de" stroke-width="1" rx="6"/>
  <text x="678" y="148" font-family="-apple-system,BlinkMacSystemFont,sans-serif" font-size="14" font-weight="600" fill="#24292f">Backup Options</text>

  <!-- Checkboxes -->
  <text x="674" y="174" font-family="-apple-system,BlinkMacSystemFont,sans-serif" font-size="12" font-weight="600" fill="#57606a">Include in backup:</text>

  <!-- Option rows -->
  <rect x="678" y="183" width="12" height="12" fill="#0969da" rx="2"/>
  <text x="696" y="194" font-family="-apple-system,BlinkMacSystemFont,sans-serif" font-size="12" fill="#24292f">Source code &amp; all branches</text>

  <rect x="678" y="205" width="12" height="12" fill="#0969da" rx="2"/>
  <text x="696" y="216" font-family="-apple-system,BlinkMacSystemFont,sans-serif" font-size="12" fill="#24292f">Issues &amp; comments</text>

  <rect x="678" y="227" width="12" height="12" fill="#0969da" rx="2"/>
  <text x="696" y="238" font-family="-apple-system,BlinkMacSystemFont,sans-serif" font-size="12" fill="#24292f">Pull requests</text>

  <rect x="678" y="249" width="12" height="12" fill="#0969da" rx="2"/>
  <text x="696" y="260" font-family="-apple-system,BlinkMacSystemFont,sans-serif" font-size="12" fill="#24292f">Releases &amp; assets</text>

  <rect x="678" y="271" width="12" height="12" fill="#0969da" rx="2"/>
  <text x="696" y="282" font-family="-apple-system,BlinkMacSystemFont,sans-serif" font-size="12" fill="#24292f">Wiki</text>

  <rect x="678" y="293" width="12" height="12" fill="#0969da" rx="2"/>
  <text x="696" y="304" font-family="-apple-system,BlinkMacSystemFont,sans-serif" font-size="12" fill="#24292f">Labels</text>

  <rect x="678" y="315" width="12" height="12" fill="#0969da" rx="2"/>
  <text x="696" y="326" font-family="-apple-system,BlinkMacSystemFont,sans-serif" font-size="12" fill="#24292f">Milestones</text>

  <!-- Drive folder input -->
  <line x1="658" y1="346" x2="1084" y2="346" stroke="#d0d7de" stroke-width="1"/>
  <text x="678" y="370" font-family="-apple-system,BlinkMacSystemFont,sans-serif" font-size="12" font-weight="600" fill="#57606a">Google Drive Folder ID</text>
  <rect x="678" y="378" width="386" height="30" fill="#f6f8fa" stroke="#d0d7de" stroke-width="1" rx="6"/>
  <text x="692" y="397" font-family="ui-monospace,monospace" font-size="11" fill="#24292f">1BkX9mQzR4TvWxYpLnDoUeFs3HjKiAaCbGdEf</text>

  <!-- Trigger button -->
  <rect x="678" y="424" width="366" height="42" fill="#0969da" rx="6"/>
  <text x="861" y="450" font-family="-apple-system,BlinkMacSystemFont,sans-serif" font-size="14" font-weight="600" fill="#ffffff" text-anchor="middle">▶  Trigger Backup Workflow</text>

  <!-- hint text -->
  <text x="678" y="484" font-family="-apple-system,BlinkMacSystemFont,sans-serif" font-size="11" fill="#57606a">Fires backup.yml via GitHub Actions API. Runs complete in ~5 minutes.</text>
</svg>
