<svg xmlns="http://www.w3.org/2000/svg" width="900" height="560" viewBox="0 0 900 560">
  <rect width="900" height="560" fill="#0d1117"/>
  <rect width="230" height="560" fill="#161b22" stroke="#30363d" stroke-width="1"/>
  <text x="20" y="38" font-family="sans-serif" font-size="20" fill="#e6edf3">🗄️</text>
  <text x="50" y="38" font-family="sans-serif" font-size="16" font-weight="700" fill="#e6edf3">GH Backup</text>
  <line x1="0" y1="56" x2="230" y2="56" stroke="#30363d"/>
  <text x="20" y="95" font-family="sans-serif" font-size="14" fill="#8b949e">⊞  Dashboard</text>
  <rect x="8" y="108" width="214" height="36" rx="8" fill="#1f6feb"/>
  <text x="42" y="131" font-family="sans-serif" font-size="14" font-weight="600" fill="#fff">Backup</text>
  <text x="20" y="131" font-family="sans-serif" font-size="14" fill="#fff">⬇</text>
  <text x="20" y="175" font-family="sans-serif" font-size="14" fill="#8b949e">⬆  Restore</text>
  <text x="20" y="215" font-family="sans-serif" font-size="14" fill="#8b949e">↻  Workflow Runs</text>
  <text x="20" y="255" font-family="sans-serif" font-size="14" fill="#8b949e">⚙  Settings</text>
  <rect x="12" y="528" width="130" height="24" rx="12" fill="#21262d"/>
  <circle cx="26" cy="540" r="4" fill="#3fb950"/>
  <text x="36" y="545" font-family="sans-serif" font-size="12" fill="#e6edf3">OmarRao</text>

  <text x="258" y="52" font-family="sans-serif" font-size="22" font-weight="700" fill="#e6edf3">Backup GitHub → Drive</text>

  <!-- Info banner -->
  <rect x="258" y="64" width="622" height="40" rx="8" fill="rgba(31,111,235,0.1)" stroke="rgba(31,111,235,0.3)" stroke-width="1"/>
  <text x="276" y="88" font-family="sans-serif" font-size="13" fill="#8ac5ff">ℹ  Backup runs via GitHub Actions. Secrets must be set in repository settings.</text>

  <!-- Left card: repos -->
  <rect x="258" y="118" width="298" height="380" rx="8" fill="#161b22" stroke="#30363d" stroke-width="1"/>
  <text x="278" y="146" font-family="sans-serif" font-size="15" font-weight="600" fill="#e6edf3">Select Repositories</text>
  <rect x="278" y="158" width="200" height="30" rx="6" fill="#0d1117" stroke="#30363d" stroke-width="1"/>
  <text x="292" y="178" font-family="sans-serif" font-size="13" fill="#8b949e">Filter repositories…</text>
  <!-- repo rows -->
  <rect x="278" y="198" width="258" height="290" rx="6" fill="#0d1117" stroke="#30363d" stroke-width="1"/>
  <rect x="290" y="212" width="14" height="14" rx="2" fill="#1f6feb"/>
  <text x="312" y="224" font-family="sans-serif" font-size="13" font-weight="500" fill="#e6edf3">api-service</text>
  <rect x="390" y="210" width="52" height="18" rx="9" fill="none" stroke="#9e6a03" stroke-width="1"/>
  <text x="396" y="223" font-family="sans-serif" font-size="10" fill="#d29922">🔒 private</text>
  <line x1="290" y1="238" x2="526" y2="238" stroke="#30363d"/>
  <rect x="290" y="250" width="14" height="14" rx="2" fill="#1f6feb"/>
  <text x="312" y="262" font-family="sans-serif" font-size="13" font-weight="500" fill="#e6edf3">frontend-app</text>
  <rect x="396" y="248" width="40" height="18" rx="9" fill="none" stroke="#30363d" stroke-width="1"/>
  <text x="402" y="261" font-family="sans-serif" font-size="10" fill="#8b949e">public</text>
  <line x1="290" y1="278" x2="526" y2="278" stroke="#30363d"/>
  <rect x="290" y="290" width="14" height="14" rx="2" fill="#0d1117" stroke="#30363d" stroke-width="1"/>
  <text x="312" y="302" font-family="sans-serif" font-size="13" font-weight="500" fill="#e6edf3">infra-configs</text>
  <rect x="396" y="288" width="52" height="18" rx="9" fill="none" stroke="#9e6a03" stroke-width="1"/>
  <text x="402" y="301" font-family="sans-serif" font-size="10" fill="#d29922">🔒 private</text>
  <line x1="290" y1="318" x2="526" y2="318" stroke="#30363d"/>
  <rect x="290" y="330" width="14" height="14" rx="2" fill="#1f6feb"/>
  <text x="312" y="342" font-family="sans-serif" font-size="13" font-weight="500" fill="#e6edf3">mobile-app</text>
  <rect x="390" y="328" width="52" height="18" rx="9" fill="none" stroke="#9e6a03" stroke-width="1"/>
  <text x="396" y="341" font-family="sans-serif" font-size="10" fill="#d29922">🔒 private</text>
  <line x1="290" y1="358" x2="526" y2="358" stroke="#30363d"/>
  <rect x="290" y="370" width="14" height="14" rx="2" fill="#1f6feb"/>
  <text x="312" y="382" font-family="sans-serif" font-size="13" font-weight="500" fill="#e6edf3">data-pipeline</text>
  <rect x="400" y="368" width="40" height="18" rx="9" fill="none" stroke="#30363d" stroke-width="1"/>
  <text x="406" y="381" font-family="sans-serif" font-size="10" fill="#8b949e">public</text>

  <!-- Right card: options -->
  <rect x="568" y="118" width="312" height="380" rx="8" fill="#161b22" stroke="#30363d" stroke-width="1"/>
  <text x="588" y="146" font-family="sans-serif" font-size="15" font-weight="600" fill="#e6edf3">Backup Options</text>
  <text x="588" y="168" font-family="sans-serif" font-size="11" font-weight="600" fill="#8b949e">INCLUDE</text>
  <rect x="588" y="178" width="14" height="14" rx="2" fill="#1f6feb"/>
  <text x="610" y="190" font-family="sans-serif" font-size="13" fill="#e6edf3">Source code &amp; branches</text>
  <rect x="588" y="202" width="14" height="14" rx="2" fill="#1f6feb"/>
  <text x="610" y="214" font-family="sans-serif" font-size="13" fill="#e6edf3">Issues &amp; comments</text>
  <rect x="588" y="226" width="14" height="14" rx="2" fill="#1f6feb"/>
  <text x="610" y="238" font-family="sans-serif" font-size="13" fill="#e6edf3">Pull requests</text>
  <rect x="588" y="250" width="14" height="14" rx="2" fill="#1f6feb"/>
  <text x="610" y="262" font-family="sans-serif" font-size="13" fill="#e6edf3">Releases &amp; assets</text>
  <rect x="588" y="274" width="14" height="14" rx="2" fill="#1f6feb"/>
  <text x="610" y="286" font-family="sans-serif" font-size="13" fill="#e6edf3">Wiki</text>
  <rect x="588" y="298" width="14" height="14" rx="2" fill="#1f6feb"/>
  <text x="610" y="310" font-family="sans-serif" font-size="13" fill="#e6edf3">Labels</text>
  <rect x="588" y="322" width="14" height="14" rx="2" fill="#1f6feb"/>
  <text x="610" y="334" font-family="sans-serif" font-size="13" fill="#e6edf3">Milestones</text>
  <!-- Trigger button -->
  <rect x="580" y="456" width="292" height="36" rx="8" fill="#238636"/>
  <text x="660" y="479" font-family="sans-serif" font-size="14" font-weight="600" fill="#fff">▶ Trigger Backup Workflow</text>
</svg>
