<svg xmlns="http://www.w3.org/2000/svg" viewBox="0 0 900 500" width="900" height="500" font-family="Inter, system-ui, sans-serif">
  <defs>
    <linearGradient id="topbar" x1="0" y1="0" x2="1" y2="0">
      <stop offset="0" stop-color="#2563eb"/>
      <stop offset="1" stop-color="#7c3aed"/>
    </linearGradient>
  </defs>
  <rect x="0" y="0" width="900" height="500" fill="#f8fafc"/>
  <rect x="0" y="0" width="900" height="4" fill="url(#topbar)"/>
  <!-- header -->
  <rect x="0" y="4" width="900" height="44" fill="#ffffff"/>
  <text x="28" y="32" font-size="14" font-weight="700" fill="#1e293b">Backup</text>
  <text x="118" y="32" font-size="12" fill="#64748b">Restore</text>
  <text x="195" y="32" font-size="12" fill="#64748b">Reports</text>
  <text x="270" y="32" font-size="12" fill="#64748b">Settings</text>
  <circle cx="858" cy="26" r="12" fill="#2563eb"/>
  <text x="858" y="30" text-anchor="middle" font-size="9" font-weight="700" fill="#ffffff">OR</text>
  <line x1="0" y1="48" x2="900" y2="48" stroke="#e2e8f0"/>

  <!-- LEFT card: Select Repositories -->
  <rect x="28" y="68" width="400" height="404" rx="12" fill="#ffffff" stroke="#e2e8f0"/>
  <text x="48" y="98" font-size="14" font-weight="700" fill="#1e293b">Select Repositories</text>
  <line x1="48" y1="110" x2="408" y2="110" stroke="#e2e8f0"/>
  <!-- checkbox rows -->
  <g font-size="12" fill="#1e293b">
    <rect x="48" y="132" width="18" height="18" rx="4" fill="#2563eb"/>
    <path d="M52 141 l3 3 l6 -7" stroke="#ffffff" stroke-width="2" fill="none" stroke-linecap="round" stroke-linejoin="round"/>
    <text x="78" y="146">webapp-frontend</text>

    <rect x="48" y="170" width="18" height="18" rx="4" fill="#2563eb"/>
    <path d="M52 179 l3 3 l6 -7" stroke="#ffffff" stroke-width="2" fill="none" stroke-linecap="round" stroke-linejoin="round"/>
    <text x="78" y="184">api-service</text>

    <rect x="48" y="208" width="18" height="18" rx="4" fill="#ffffff" stroke="#cbd5e1"/>
    <text x="78" y="222">mobile-app</text>

    <rect x="48" y="246" width="18" height="18" rx="4" fill="#2563eb"/>
    <path d="M52 255 l3 3 l6 -7" stroke="#ffffff" stroke-width="2" fill="none" stroke-linecap="round" stroke-linejoin="round"/>
    <text x="78" y="260">infrastructure</text>

    <rect x="48" y="284" width="18" height="18" rx="4" fill="#ffffff" stroke="#cbd5e1"/>
    <text x="78" y="298">data-pipeline</text>
  </g>
  <line x1="48" y1="324" x2="408" y2="324" stroke="#e2e8f0"/>
  <text x="48" y="348" font-size="11" fill="#64748b">3 of 5 repositories selected</text>

  <!-- RIGHT card: Backup Options -->
  <rect x="452" y="68" width="420" height="404" rx="12" fill="#ffffff" stroke="#e2e8f0"/>
  <text x="472" y="98" font-size="14" font-weight="700" fill="#1e293b">Backup Options</text>
  <line x1="472" y1="110" x2="852" y2="110" stroke="#e2e8f0"/>

  <g font-size="11" fill="#1e293b">
    <rect x="472" y="126" width="16" height="16" rx="4" fill="#2563eb"/>
    <path d="M476 134 l3 3 l5 -6" stroke="#ffffff" stroke-width="2" fill="none" stroke-linecap="round" stroke-linejoin="round"/>
    <text x="498" y="139">Include issues &amp; PRs</text>

    <rect x="660" y="126" width="16" height="16" rx="4" fill="#2563eb"/>
    <path d="M664 134 l3 3 l5 -6" stroke="#ffffff" stroke-width="2" fill="none" stroke-linecap="round" stroke-linejoin="round"/>
    <text x="686" y="139">Include wikis</text>
  </g>

  <!-- GitHub Orgs field -->
  <text x="472" y="172" font-size="11" font-weight="600" fill="#64748b">GitHub Orgs (comma-separated)</text>
  <rect x="472" y="182" width="380" height="34" rx="8" fill="#f8fafc" stroke="#e2e8f0"/>
  <text x="486" y="204" font-size="12" fill="#1e293b">veeam-eng, veeam-cloud, veeam-labs</text>

  <!-- GitLab Token -->
  <text x="472" y="244" font-size="11" font-weight="600" fill="#64748b">GitLab Token</text>
  <rect x="472" y="254" width="380" height="34" rx="8" fill="#f8fafc" stroke="#e2e8f0"/>
  <text x="486" y="276" font-size="12" fill="#64748b">••••••••••••••••••••</text>

  <!-- Drive folder ID -->
  <text x="472" y="316" font-size="11" font-weight="600" fill="#64748b">Google Drive Folder ID</text>
  <rect x="472" y="326" width="380" height="34" rx="8" fill="#f8fafc" stroke="#e2e8f0"/>
  <text x="486" y="348" font-size="12" fill="#1e293b">1A2b3C4d5E6f7G8h9I0jKlMnOpQr</text>

  <!-- Trigger button -->
  <rect x="472" y="398" width="380" height="44" rx="8" fill="#16a34a"/>
  <text x="662" y="425" text-anchor="middle" font-size="13" font-weight="700" fill="#ffffff">Trigger Backup Workflow</text>
</svg>
