<svg xmlns="http://www.w3.org/2000/svg" width="900" height="560" viewBox="0 0 900 560">
  <rect width="900" height="560" fill="#0d1117"/>
  <!-- Sidebar -->
  <rect width="230" height="560" fill="#161b22"/>
  <rect x="0" y="0" width="230" height="560" fill="none" stroke="#30363d" stroke-width="1"/>
  <!-- Logo -->
  <text x="20" y="38" font-family="sans-serif" font-size="20" fill="#e6edf3">🗄️</text>
  <text x="50" y="38" font-family="sans-serif" font-size="16" font-weight="700" fill="#e6edf3">GH Backup</text>
  <line x1="0" y1="56" x2="230" y2="56" stroke="#30363d"/>
  <!-- Nav items -->
  <rect x="8" y="68" width="214" height="36" rx="8" fill="#1f6feb"/>
  <text x="42" y="91" font-family="sans-serif" font-size="14" font-weight="600" fill="#fff">Dashboard</text>
  <text x="20" y="91" font-family="sans-serif" font-size="14" fill="#fff">⊞</text>
  <text x="20" y="135" font-family="sans-serif" font-size="14" fill="#8b949e">⬇  Backup</text>
  <text x="20" y="175" font-family="sans-serif" font-size="14" fill="#8b949e">⬆  Restore</text>
  <text x="20" y="215" font-family="sans-serif" font-size="14" fill="#8b949e">↻  Workflow Runs</text>
  <text x="20" y="255" font-family="sans-serif" font-size="14" fill="#8b949e">⚙  Settings</text>
  <!-- Status pill -->
  <rect x="12" y="528" width="130" height="24" rx="12" fill="#21262d"/>
  <circle cx="26" cy="540" r="4" fill="#3fb950"/>
  <text x="36" y="545" font-family="sans-serif" font-size="12" fill="#e6edf3">OmarRao</text>

  <!-- Main content -->
  <text x="258" y="52" font-family="sans-serif" font-size="22" font-weight="700" fill="#e6edf3">Dashboard</text>
  <text x="258" y="72" font-family="sans-serif" font-size="13" fill="#8b949e">GitHub → Google Drive Backup</text>

  <!-- Stat cards -->
  <rect x="258" y="92" width="148" height="80" rx="8" fill="#161b22" stroke="#30363d" stroke-width="1"/>
  <text x="278" y="130" font-family="sans-serif" font-size="26" fill="#e6edf3">📦</text>
  <text x="316" y="125" font-family="sans-serif" font-size="22" font-weight="700" fill="#e6edf3">42</text>
  <text x="316" y="143" font-family="sans-serif" font-size="11" fill="#8b949e">Repositories</text>

  <rect x="416" y="92" width="148" height="80" rx="8" fill="#161b22" stroke="#30363d" stroke-width="1"/>
  <text x="436" y="130" font-family="sans-serif" font-size="26" fill="#e6edf3">▶️</text>
  <text x="474" y="125" font-family="sans-serif" font-size="22" font-weight="700" fill="#e6edf3">7</text>
  <text x="474" y="143" font-family="sans-serif" font-size="11" fill="#8b949e">Workflow Runs</text>

  <rect x="574" y="92" width="148" height="80" rx="8" fill="#161b22" stroke="#30363d" stroke-width="1"/>
  <text x="594" y="130" font-family="sans-serif" font-size="26" fill="#e6edf3">✅</text>
  <text x="632" y="120" font-family="sans-serif" font-size="16" font-weight="700" fill="#e6edf3">2h ago</text>
  <text x="632" y="143" font-family="sans-serif" font-size="11" fill="#8b949e">Last Backup Run</text>

  <rect x="732" y="92" width="148" height="80" rx="8" fill="#161b22" stroke="#30363d" stroke-width="1"/>
  <text x="752" y="130" font-family="sans-serif" font-size="26" fill="#e6edf3">⚡</text>
  <text x="790" y="125" font-family="sans-serif" font-size="22" font-weight="700" fill="#e6edf3">0</text>
  <text x="790" y="143" font-family="sans-serif" font-size="11" fill="#8b949e">Active Runs</text>

  <!-- Recent runs card -->
  <rect x="258" y="188" width="622" height="340" rx="8" fill="#161b22" stroke="#30363d" stroke-width="1"/>
  <text x="278" y="216" font-family="sans-serif" font-size="15" font-weight="600" fill="#e6edf3">Recent Workflow Runs</text>
  <line x1="258" y1="228" x2="880" y2="228" stroke="#30363d"/>

  <!-- Run rows -->
  <rect x="278" y="244" width="72" height="22" rx="11" fill="rgba(35,134,54,0.2)"/>
  <text x="290" y="260" font-family="sans-serif" font-size="11" font-weight="700" fill="#3fb950">success</text>
  <text x="364" y="260" font-family="sans-serif" font-size="14" font-weight="500" fill="#e6edf3">Scheduled GitHub → Google Drive Backup</text>
  <text x="700" y="260" font-family="sans-serif" font-size="12" fill="#8b949e">2h ago</text>
  <text x="820" y="260" font-family="sans-serif" font-size="12" fill="#388bfd">View →</text>
  <line x1="278" y1="274" x2="860" y2="274" stroke="#30363d"/>

  <rect x="278" y="284" width="72" height="22" rx="11" fill="rgba(35,134,54,0.2)"/>
  <text x="290" y="300" font-family="sans-serif" font-size="11" font-weight="700" fill="#3fb950">success</text>
  <text x="364" y="300" font-family="sans-serif" font-size="14" font-weight="500" fill="#e6edf3">Scheduled GitHub → Google Drive Backup</text>
  <text x="700" y="300" font-family="sans-serif" font-size="12" fill="#8b949e">1d ago</text>
  <text x="820" y="300" font-family="sans-serif" font-size="12" fill="#388bfd">View →</text>
  <line x1="278" y1="314" x2="860" y2="314" stroke="#30363d"/>

  <rect x="278" y="324" width="80" height="22" rx="11" fill="rgba(218,54,51,0.2)"/>
  <text x="290" y="340" font-family="sans-serif" font-size="11" font-weight="700" fill="#f85149">failure</text>
  <text x="372" y="340" font-family="sans-serif" font-size="14" font-weight="500" fill="#e6edf3">Restore from Google Drive → GitHub</text>
  <text x="700" y="340" font-family="sans-serif" font-size="12" fill="#8b949e">2d ago</text>
  <text x="820" y="340" font-family="sans-serif" font-size="12" fill="#388bfd">View →</text>
  <line x1="278" y1="354" x2="860" y2="354" stroke="#30363d"/>

  <rect x="278" y="364" width="72" height="22" rx="11" fill="rgba(35,134,54,0.2)"/>
  <text x="290" y="380" font-family="sans-serif" font-size="11" font-weight="700" fill="#3fb950">success</text>
  <text x="364" y="380" font-family="sans-serif" font-size="14" font-weight="500" fill="#e6edf3">Scheduled GitHub → Google Drive Backup</text>
  <text x="700" y="380" font-family="sans-serif" font-size="12" fill="#8b949e">3d ago</text>
  <text x="820" y="380" font-family="sans-serif" font-size="12" fill="#388bfd">View →</text>
</svg>
