<svg width="1100" height="680" viewBox="0 0 1100 680" xmlns="http://www.w3.org/2000/svg" font-family="Inter, system-ui, -apple-system, sans-serif">
  <defs>
    <linearGradient id="brandGrad" x1="0" y1="0" x2="0" y2="1">
      <stop offset="0%" stop-color="#1a7f37"/>
      <stop offset="100%" stop-color="#0d5c27"/>
    </linearGradient>
    <linearGradient id="heroGrad" x1="0" y1="0" x2="1" y2="0">
      <stop offset="0%" stop-color="#1d4ed8"/>
      <stop offset="100%" stop-color="#1a3a8f"/>
    </linearGradient>
  </defs>

  <!-- Page background -->
  <rect width="1100" height="680" fill="#f5f7fa"/>

  <!-- ── SIDEBAR ── -->
  <rect x="0" y="0" width="240" height="680" fill="white" stroke="#e2e6ea" stroke-width="1"/>

  <!-- Brand -->
  <rect x="16" y="18" width="36" height="36" rx="8" fill="url(#brandGrad)"/>
  <text x="34" y="40" text-anchor="middle" font-size="15" font-weight="800" fill="white">G</text>
  <text x="60" y="33" font-size="14" font-weight="700" fill="#111827">GH Backup</text>
  <text x="60" y="47" font-size="10" fill="#6b7280">Resilience Tool</text>

  <line x1="16" y1="66" x2="224" y2="66" stroke="#e2e6ea" stroke-width="1"/>

  <!-- Nav label -->
  <text x="16" y="86" font-size="10" font-weight="600" fill="#9ca3af" letter-spacing="1">NAVIGATION</text>

  <!-- Dashboard (active) -->
  <rect x="8" y="94" width="224" height="36" rx="6" fill="#eff6ff"/>
  <g transform="translate(16, 103) scale(0.75)" stroke="#2563eb" stroke-width="1.5" fill="none" stroke-linecap="round" stroke-linejoin="round">
    <rect x="3" y="3" width="8" height="8" rx="1.5"/><rect x="13" y="3" width="8" height="8" rx="1.5"/><rect x="3" y="13" width="8" height="8" rx="1.5"/><rect x="13" y="13" width="8" height="8" rx="1.5"/>
  </g>
  <text x="48" y="116" font-size="13" font-weight="600" fill="#2563eb">Dashboard</text>

  <!-- Backup -->
  <g transform="translate(16, 139) scale(0.75)" stroke="#9ca3af" stroke-width="1.5" fill="none" stroke-linecap="round" stroke-linejoin="round">
    <path d="M21 15v4a2 2 0 0 1-2 2H5a2 2 0 0 1-2-2v-4"/><polyline points="7 10 12 15 17 10"/><line x1="12" y1="15" x2="12" y2="3"/>
  </g>
  <text x="48" y="152" font-size="13" fill="#374151">Backup</text>

  <!-- Restore -->
  <g transform="translate(16, 171) scale(0.75)" stroke="#9ca3af" stroke-width="1.5" fill="none" stroke-linecap="round" stroke-linejoin="round">
    <path d="M21 15v4a2 2 0 0 1-2 2H5a2 2 0 0 1-2-2v-4"/><polyline points="17 8 12 3 7 8"/><line x1="12" y1="3" x2="12" y2="15"/>
  </g>
  <text x="48" y="184" font-size="13" fill="#374151">Restore</text>

  <!-- Workflow Runs -->
  <g transform="translate(16, 203) scale(0.75)" stroke="#9ca3af" stroke-width="1.5" fill="none" stroke-linecap="round" stroke-linejoin="round">
    <circle cx="12" cy="12" r="10"/><polyline points="12 6 12 12 16 14"/>
  </g>
  <text x="48" y="216" font-size="13" fill="#374151">Workflow Runs</text>

  <!-- Reports -->
  <g transform="translate(16, 235) scale(0.75)" stroke="#9ca3af" stroke-width="1.5" fill="none" stroke-linecap="round" stroke-linejoin="round">
    <path d="M3 20V8h4v12M10 20V4h4v16M17 20v-6h4v6"/>
  </g>
  <text x="48" y="248" font-size="13" fill="#374151">Reports</text>

  <!-- Settings -->
  <g transform="translate(16, 267) scale(0.75)" stroke="#9ca3af" stroke-width="1.5" fill="none" stroke-linecap="round" stroke-linejoin="round">
    <circle cx="12" cy="12" r="3"/><path d="M19.4 15a1.65 1.65 0 00.33 1.82l.06.06a2 2 0 010 2.83 2 2 0 01-2.83 0l-.06-.06a1.65 1.65 0 00-1.82-.33 1.65 1.65 0 00-1 1.51V21a2 2 0 01-4 0v-.09A1.65 1.65 0 009 19.4a1.65 1.65 0 00-1.82.33l-.06.06a2 2 0 01-2.83-2.83l.06-.06A1.65 1.65 0 004.68 15a1.65 1.65 0 00-1.51-1H3a2 2 0 010-4h.09A1.65 1.65 0 004.6 9a1.65 1.65 0 00-.33-1.82l-.06-.06a2 2 0 012.83-2.83l.06.06A1.65 1.65 0 009 4.68a1.65 1.65 0 001-1.51V3a2 2 0 014 0v.09a1.65 1.65 0 001 1.51 1.65 1.65 0 001.82-.33l.06-.06a2 2 0 012.83 2.83l-.06.06A1.65 1.65 0 0019.4 9a1.65 1.65 0 001.51 1H21a2 2 0 010 4h-.09a1.65 1.65 0 00-1.51 1z"/>
  </g>
  <text x="48" y="280" font-size="13" fill="#374151">Settings</text>

  <!-- Status pills -->
  <line x1="16" y1="558" x2="224" y2="558" stroke="#e2e6ea" stroke-width="1"/>
  <rect x="16" y="568" width="138" height="22" rx="11" fill="#f0fdf4" stroke="#bbf7d0" stroke-width="1"/>
  <circle cx="30" cy="579" r="4" fill="#16a34a"/>
  <text x="40" y="583" font-size="11" fill="#15803d">GitHub: OmarRao</text>
  <rect x="16" y="596" width="128" height="22" rx="11" fill="#f0fdf4" stroke="#bbf7d0" stroke-width="1"/>
  <circle cx="30" cy="607" r="4" fill="#16a34a"/>
  <text x="40" y="611" font-size="11" fill="#15803d">Drive: connected</text>

  <!-- Author -->
  <line x1="16" y1="628" x2="224" y2="628" stroke="#e2e6ea" stroke-width="1"/>
  <text x="16" y="644" font-size="12" font-weight="600" fill="#111827">Omar Rao</text>
  <text x="16" y="657" font-size="10" fill="#6b7280">Engineer - Data Resilience</text>
  <rect x="16" y="662" width="54" height="14" rx="3" fill="#eff6ff" stroke="#bfdbfe" stroke-width="1"/>
  <text x="43" y="672" text-anchor="middle" font-size="9" fill="#2563eb">LinkedIn</text>
  <rect x="76" y="662" width="52" height="14" rx="3" fill="#f0fdf4" stroke="#bbf7d0" stroke-width="1"/>
  <text x="102" y="672" text-anchor="middle" font-size="9" fill="#15803d">Substack</text>

  <!-- ── MAIN CONTENT ── -->

  <!-- Hero banner -->
  <rect x="256" y="16" width="828" height="116" rx="12" fill="url(#heroGrad)"/>
  <text x="284" y="54" font-size="20" font-weight="700" fill="white">GitHub to Google Drive Backup</text>
  <text x="284" y="74" font-size="12" fill="#bfdbfe">Automated repository backups with full restore capability. Powered by GitHub Actions.</text>
  <rect x="284" y="86" width="104" height="22" rx="11" fill="rgba(255,255,255,0.18)" stroke="rgba(255,255,255,0.38)" stroke-width="1"/>
  <text x="336" y="100" text-anchor="middle" font-size="11" fill="white">GitHub Actions</text>
  <rect x="396" y="86" width="114" height="22" rx="11" fill="rgba(255,255,255,0.18)" stroke="rgba(255,255,255,0.38)" stroke-width="1"/>
  <text x="453" y="100" text-anchor="middle" font-size="11" fill="white">Google Drive API</text>
  <rect x="518" y="86" width="94" height="22" rx="11" fill="rgba(255,255,255,0.18)" stroke="rgba(255,255,255,0.38)" stroke-width="1"/>
  <text x="565" y="100" text-anchor="middle" font-size="11" fill="white">Open Source</text>

  <!-- Stat cards -->
  <!-- Card 1 -->
  <rect x="256" y="148" width="196" height="88" rx="10" fill="white" stroke="#e2e6ea" stroke-width="1"/>
  <rect x="274" y="162" width="32" height="32" rx="8" fill="#eff6ff"/>
  <text x="290" y="182" text-anchor="middle" font-size="14" font-weight="700" fill="#2563eb">12</text>
  <text x="316" y="172" font-size="10" font-weight="600" fill="#6b7280">REPOSITORIES</text>
  <text x="316" y="190" font-size="22" font-weight="700" fill="#111827">12</text>
  <text x="274" y="224" font-size="11" fill="#6b7280">Total tracked repos</text>

  <!-- Card 2 -->
  <rect x="460" y="148" width="196" height="88" rx="10" fill="white" stroke="#e2e6ea" stroke-width="1"/>
  <rect x="478" y="162" width="32" height="32" rx="8" fill="#f0fdf4"/>
  <text x="494" y="182" text-anchor="middle" font-size="14" font-weight="700" fill="#16a34a">24</text>
  <text x="520" y="172" font-size="10" font-weight="600" fill="#6b7280">BACKUP SESSIONS</text>
  <text x="520" y="190" font-size="22" font-weight="700" fill="#111827">24</text>
  <text x="478" y="224" font-size="11" fill="#6b7280">Total completed runs</text>

  <!-- Card 3 -->
  <rect x="664" y="148" width="196" height="88" rx="10" fill="white" stroke="#e2e6ea" stroke-width="1"/>
  <rect x="682" y="162" width="32" height="32" rx="8" fill="#fffbeb"/>
  <text x="698" y="182" text-anchor="middle" font-size="11" font-weight="700" fill="#d97706">2h</text>
  <text x="724" y="172" font-size="10" font-weight="600" fill="#6b7280">LAST BACKUP</text>
  <text x="724" y="190" font-size="22" font-weight="700" fill="#111827">2h ago</text>
  <text x="682" y="224" font-size="11" fill="#6b7280">Most recent session</text>

  <!-- Card 4 -->
  <rect x="868" y="148" width="196" height="88" rx="10" fill="white" stroke="#e2e6ea" stroke-width="1"/>
  <rect x="886" y="162" width="32" height="32" rx="8" fill="#faf5ff"/>
  <text x="902" y="182" text-anchor="middle" font-size="14" font-weight="700" fill="#7c3aed">0</text>
  <text x="928" y="172" font-size="10" font-weight="600" fill="#6b7280">ACTIVE RUNS</text>
  <text x="928" y="190" font-size="22" font-weight="700" fill="#111827">0</text>
  <text x="886" y="224" font-size="11" fill="#6b7280">Currently running</text>

  <!-- Recent Workflow Runs card -->
  <rect x="256" y="252" width="828" height="410" rx="10" fill="white" stroke="#e2e6ea" stroke-width="1"/>
  <text x="278" y="278" font-size="15" font-weight="700" fill="#111827">Recent Workflow Runs</text>
  <text x="278" y="294" font-size="12" fill="#6b7280">Latest backup and restore activity from GitHub Actions</text>
  <line x1="256" y1="306" x2="1084" y2="306" stroke="#e2e6ea" stroke-width="1"/>

  <!-- Header row -->
  <rect x="256" y="307" width="828" height="28" fill="#f9fafb"/>
  <text x="278" y="325" font-size="11" font-weight="600" fill="#6b7280">STATUS</text>
  <text x="380" y="325" font-size="11" font-weight="600" fill="#6b7280">RUN NAME</text>
  <text x="660" y="325" font-size="11" font-weight="600" fill="#6b7280">WORKFLOW</text>
  <text x="840" y="325" font-size="11" font-weight="600" fill="#6b7280">TIMESTAMP</text>
  <text x="1040" y="325" font-size="11" font-weight="600" fill="#6b7280">LINK</text>
  <line x1="256" y1="335" x2="1084" y2="335" stroke="#e2e6ea" stroke-width="1"/>

  <!-- Row 1 -->
  <rect x="278" y="345" width="62" height="20" rx="10" fill="#f0fdf4" stroke="#bbf7d0" stroke-width="1"/>
  <circle cx="292" cy="355" r="3" fill="#16a34a"/>
  <text x="300" y="359" font-size="11" fill="#15803d">success</text>
  <text x="380" y="359" font-size="12" fill="#111827">backup-2026-06-16-nightly</text>
  <text x="660" y="359" font-size="12" fill="#374151">Backup Repositories</text>
  <text x="840" y="359" font-size="12" fill="#6b7280">2026-06-16 02:00 UTC</text>
  <text x="1040" y="359" font-size="12" fill="#2563eb">View -&gt;</text>
  <line x1="256" y1="371" x2="1084" y2="371" stroke="#f3f4f6" stroke-width="1"/>

  <!-- Row 2 -->
  <rect x="278" y="381" width="62" height="20" rx="10" fill="#f0fdf4" stroke="#bbf7d0" stroke-width="1"/>
  <circle cx="292" cy="391" r="3" fill="#16a34a"/>
  <text x="300" y="395" font-size="11" fill="#15803d">success</text>
  <text x="380" y="395" font-size="12" fill="#111827">backup-2026-06-15-nightly</text>
  <text x="660" y="395" font-size="12" fill="#374151">Backup Repositories</text>
  <text x="840" y="395" font-size="12" fill="#6b7280">2026-06-15 02:00 UTC</text>
  <text x="1040" y="395" font-size="12" fill="#2563eb">View -&gt;</text>
  <line x1="256" y1="407" x2="1084" y2="407" stroke="#f3f4f6" stroke-width="1"/>

  <!-- Row 3 failure -->
  <rect x="278" y="417" width="58" height="20" rx="10" fill="#fef2f2" stroke="#fecaca" stroke-width="1"/>
  <circle cx="292" cy="427" r="3" fill="#dc2626"/>
  <text x="300" y="431" font-size="11" fill="#dc2626">failure</text>
  <text x="380" y="431" font-size="12" fill="#111827">restore-2026-06-14-manual</text>
  <text x="660" y="431" font-size="12" fill="#374151">Restore to GitHub</text>
  <text x="840" y="431" font-size="12" fill="#6b7280">2026-06-14 14:32 UTC</text>
  <text x="1040" y="431" font-size="12" fill="#2563eb">View -&gt;</text>
  <line x1="256" y1="443" x2="1084" y2="443" stroke="#f3f4f6" stroke-width="1"/>

  <!-- Row 4 -->
  <rect x="278" y="453" width="62" height="20" rx="10" fill="#f0fdf4" stroke="#bbf7d0" stroke-width="1"/>
  <circle cx="292" cy="463" r="3" fill="#16a34a"/>
  <text x="300" y="467" font-size="11" fill="#15803d">success</text>
  <text x="380" y="467" font-size="12" fill="#111827">backup-2026-06-14-nightly</text>
  <text x="660" y="467" font-size="12" fill="#374151">Backup Repositories</text>
  <text x="840" y="467" font-size="12" fill="#6b7280">2026-06-14 02:00 UTC</text>
  <text x="1040" y="467" font-size="12" fill="#2563eb">View -&gt;</text>
  <line x1="256" y1="479" x2="1084" y2="479" stroke="#f3f4f6" stroke-width="1"/>

  <!-- Row 5 -->
  <rect x="278" y="489" width="62" height="20" rx="10" fill="#f0fdf4" stroke="#bbf7d0" stroke-width="1"/>
  <circle cx="292" cy="499" r="3" fill="#16a34a"/>
  <text x="300" y="503" font-size="11" fill="#15803d">success</text>
  <text x="380" y="503" font-size="12" fill="#111827">backup-2026-06-13-nightly</text>
  <text x="660" y="503" font-size="12" fill="#374151">Backup Repositories</text>
  <text x="840" y="503" font-size="12" fill="#6b7280">2026-06-13 02:00 UTC</text>
  <text x="1040" y="503" font-size="12" fill="#2563eb">View -&gt;</text>
</svg>
