<svg width="1100" height="680" viewBox="0 0 1100 680" xmlns="http://www.w3.org/2000/svg" font-family="Inter, system-ui, -apple-system, sans-serif">
  <defs>
    <linearGradient id="brandGrad" x1="0" y1="0" x2="0" y2="1">
      <stop offset="0%" stop-color="#1a7f37"/>
      <stop offset="100%" stop-color="#0d5c27"/>
    </linearGradient>
    <linearGradient id="heroGrad" x1="0" y1="0" x2="1" y2="0">
      <stop offset="0%" stop-color="#1d4ed8"/>
      <stop offset="100%" stop-color="#1a3a8f"/>
    </linearGradient>
  </defs>

  <!-- Page background -->
  <rect width="1100" height="680" fill="#0f172a"/>

  <!-- ── SIDEBAR ── -->
  <rect x="0" y="0" width="240" height="680" fill="#1e293b" stroke="#334155" stroke-width="1"/>

  <!-- Brand -->
  <rect x="16" y="18" width="36" height="36" rx="8" fill="url(#brandGrad)"/>
  <text x="34" y="40" text-anchor="middle" font-size="15" font-weight="800" fill="white">G</text>
  <text x="60" y="33" font-size="14" font-weight="700" fill="#f1f5f9">GH Backup</text>
  <text x="60" y="47" font-size="10" fill="#94a3b8">Resilience Tool</text>

  <!-- Dark mode toggle (moon icon — filled/highlighted to indicate dark mode active) -->
  <g transform="translate(212, 22) scale(0.6)">
    <path d="M21 12.79A9 9 0 1 1 11.21 3 7 7 0 0 0 21 12.79z" stroke="#2563eb" stroke-width="1.5" fill="#2563eb" stroke-linecap="round" stroke-linejoin="round"/>
  </g>

  <line x1="16" y1="66" x2="224" y2="66" stroke="#334155" stroke-width="1"/>

  <!-- Nav label -->
  <text x="16" y="86" font-size="10" font-weight="600" fill="#94a3b8" letter-spacing="1">NAVIGATION</text>

  <!-- Dashboard (active) -->
  <rect x="8" y="94" width="224" height="36" rx="6" fill="#1e3a5f"/>
  <g transform="translate(16, 103) scale(0.75)" stroke="#2563eb" stroke-width="1.5" fill="none" stroke-linecap="round" stroke-linejoin="round">
    <rect x="3" y="3" width="8" height="8" rx="1.5"/><rect x="13" y="3" width="8" height="8" rx="1.5"/><rect x="3" y="13" width="8" height="8" rx="1.5"/><rect x="13" y="13" width="8" height="8" rx="1.5"/>
  </g>
  <text x="48" y="116" font-size="13" font-weight="600" fill="#2563eb">Dashboard</text>

  <!-- Backup -->
  <g transform="translate(16, 139) scale(0.75)" stroke="#94a3b8" stroke-width="1.5" fill="none" stroke-linecap="round" stroke-linejoin="round">
    <path d="M21 15v4a2 2 0 0 1-2 2H5a2 2 0 0 1-2-2v-4"/><polyline points="7 10 12 15 17 10"/><line x1="12" y1="15" x2="12" y2="3"/>
  </g>
  <text x="48" y="152" font-size="13" fill="#94a3b8">Backup</text>

  <!-- Restore -->
  <g transform="translate(16, 171) scale(0.75)" stroke="#94a3b8" stroke-width="1.5" fill="none" stroke-linecap="round" stroke-linejoin="round">
    <path d="M21 15v4a2 2 0 0 1-2 2H5a2 2 0 0 1-2-2v-4"/><polyline points="17 8 12 3 7 8"/><line x1="12" y1="3" x2="12" y2="15"/>
  </g>
  <text x="48" y="184" font-size="13" fill="#94a3b8">Restore</text>

  <!-- Workflow Runs -->
  <g transform="translate(16, 203) scale(0.75)" stroke="#94a3b8" stroke-width="1.5" fill="none" stroke-linecap="round" stroke-linejoin="round">
    <circle cx="12" cy="12" r="10"/><polyline points="12 6 12 12 16 14"/>
  </g>
  <text x="48" y="216" font-size="13" fill="#94a3b8">Workflow Runs</text>

  <!-- Reports -->
  <g transform="translate(16, 235) scale(0.75)" stroke="#94a3b8" stroke-width="1.5" fill="none" stroke-linecap="round" stroke-linejoin="round">
    <path d="M3 20V8h4v12M10 20V4h4v16M17 20v-6h4v6"/>
  </g>
  <text x="48" y="248" font-size="13" fill="#94a3b8">Reports</text>

  <!-- Settings -->
  <g transform="translate(16, 267) scale(0.75)" stroke="#94a3b8" stroke-width="1.5" fill="none" stroke-linecap="round" stroke-linejoin="round">
    <circle cx="12" cy="12" r="3"/><path d="M19.4 15a1.65 1.65 0 00.33 1.82l.06.06a2 2 0 010 2.83 2 2 0 01-2.83 0l-.06-.06a1.65 1.65 0 00-1.82-.33 1.65 1.65 0 00-1 1.51V21a2 2 0 01-4 0v-.09A1.65 1.65 0 009 19.4a1.65 1.65 0 00-1.82.33l-.06.06a2 2 0 01-2.83-2.83l.06-.06A1.65 1.65 0 004.68 15a1.65 1.65 0 00-1.51-1H3a2 2 0 010-4h.09A1.65 1.65 0 004.6 9a1.65 1.65 0 00-.33-1.82l-.06-.06a2 2 0 012.83-2.83l.06.06A1.65 1.65 0 009 4.68a1.65 1.65 0 001-1.51V3a2 2 0 014 0v.09a1.65 1.65 0 001 1.51 1.65 1.65 0 001.82-.33l.06-.06a2 2 0 012.83 2.83l-.06.06A1.65 1.65 0 0019.4 9a1.65 1.65 0 001.51 1H21a2 2 0 010 4h-.09a1.65 1.65 0 00-1.51 1z"/>
  </g>
  <text x="48" y="280" font-size="13" fill="#94a3b8">Settings</text>

  <!-- Status pills -->
  <line x1="16" y1="558" x2="224" y2="558" stroke="#334155" stroke-width="1"/>
  <rect x="16" y="568" width="138" height="22" rx="11" fill="#0f2a1a" stroke="#166534" stroke-width="1"/>
  <circle cx="30" cy="579" r="4" fill="#16a34a"/>
  <text x="40" y="583" font-size="11" fill="#4ade80">GitHub: OmarRao</text>
  <rect x="16" y="596" width="128" height="22" rx="11" fill="#0f2a1a" stroke="#166534" stroke-width="1"/>
  <circle cx="30" cy="607" r="4" fill="#16a34a"/>
  <text x="40" y="611" font-size="11" fill="#4ade80">Drive: connected</text>

  <!-- Author -->
  <line x1="16" y1="628" x2="224" y2="628" stroke="#334155" stroke-width="1"/>
  <text x="16" y="644" font-size="12" font-weight="600" fill="#f1f5f9">Omar Rao</text>
  <text x="16" y="657" font-size="10" fill="#94a3b8">Engineer - Data Resilience</text>
  <rect x="16" y="662" width="54" height="14" rx="3" fill="#1e3a5f" stroke="#2563eb" stroke-width="1"/>
  <text x="43" y="672" text-anchor="middle" font-size="9" fill="#2563eb">LinkedIn</text>
  <rect x="76" y="662" width="52" height="14" rx="3" fill="#0f2a1a" stroke="#166534" stroke-width="1"/>
  <text x="102" y="672" text-anchor="middle" font-size="9" fill="#4ade80">Substack</text>

  <!-- ── MAIN CONTENT ── -->

  <!-- Hero banner -->
  <rect x="256" y="16" width="828" height="116" rx="12" fill="url(#heroGrad)"/>
  <text x="284" y="54" font-size="20" font-weight="700" fill="white">GitHub to Google Drive Backup</text>
  <text x="284" y="74" font-size="12" fill="#bfdbfe">Automated repository backups with full restore capability. Powered by GitHub Actions.</text>
  <rect x="284" y="86" width="104" height="22" rx="11" fill="rgba(255,255,255,0.18)" stroke="rgba(255,255,255,0.38)" stroke-width="1"/>
  <text x="336" y="100" text-anchor="middle" font-size="11" fill="white">GitHub Actions</text>
  <rect x="396" y="86" width="114" height="22" rx="11" fill="rgba(255,255,255,0.18)" stroke="rgba(255,255,255,0.38)" stroke-width="1"/>
  <text x="453" y="100" text-anchor="middle" font-size="11" fill="white">Google Drive API</text>
  <rect x="518" y="86" width="94" height="22" rx="11" fill="rgba(255,255,255,0.18)" stroke="rgba(255,255,255,0.38)" stroke-width="1"/>
  <text x="565" y="100" text-anchor="middle" font-size="11" fill="white">Open Source</text>

  <!-- Stat cards -->
  <!-- Card 1 -->
  <rect x="256" y="148" width="196" height="88" rx="10" fill="#1e293b" stroke="#334155" stroke-width="1"/>
  <rect x="274" y="162" width="32" height="32" rx="8" fill="#1e3a5f"/>
  <g transform="translate(281, 169) scale(0.75)" stroke="#2563eb" stroke-width="2" fill="none" stroke-linecap="round" stroke-linejoin="round">
    <rect x="2" y="3" width="20" height="5" rx="1.5"/><rect x="2" y="10" width="20" height="5" rx="1.5"/><rect x="2" y="17" width="20" height="5" rx="1.5"/>
  </g>
  <text x="316" y="172" font-size="10" font-weight="600" fill="#94a3b8">REPOSITORIES</text>
  <text x="316" y="190" font-size="22" font-weight="700" fill="#f1f5f9">12</text>
  <text x="274" y="224" font-size="11" fill="#94a3b8">Total tracked repos</text>

  <!-- Card 2 -->
  <rect x="460" y="148" width="196" height="88" rx="10" fill="#1e293b" stroke="#334155" stroke-width="1"/>
  <rect x="478" y="162" width="32" height="32" rx="8" fill="#0f2a1a"/>
  <g transform="translate(485, 169) scale(0.75)" stroke="#1a7f37" stroke-width="2" fill="none" stroke-linecap="round" stroke-linejoin="round">
    <path d="M22 19a2 2 0 0 1-2 2H4a2 2 0 0 1-2-2V5a2 2 0 0 1 2-2h5l2 3h9a2 2 0 0 1 2 2z"/>
  </g>
  <text x="520" y="172" font-size="10" font-weight="600" fill="#94a3b8">BACKUP SESSIONS</text>
  <text x="520" y="190" font-size="22" font-weight="700" fill="#f1f5f9">24</text>
  <text x="478" y="224" font-size="11" fill="#94a3b8">Total completed runs</text>

  <!-- Card 3 -->
  <rect x="664" y="148" width="196" height="88" rx="10" fill="#1e293b" stroke="#334155" stroke-width="1"/>
  <rect x="682" y="162" width="32" height="32" rx="8" fill="#2a1f0a"/>
  <g transform="translate(689, 169) scale(0.75)" stroke="#d97706" stroke-width="2" fill="none" stroke-linecap="round" stroke-linejoin="round">
    <rect x="3" y="4" width="18" height="18" rx="2"/><line x1="16" y1="2" x2="16" y2="6"/><line x1="8" y1="2" x2="8" y2="6"/><line x1="3" y1="10" x2="21" y2="10"/>
  </g>
  <text x="724" y="172" font-size="10" font-weight="600" fill="#94a3b8">LAST BACKUP</text>
  <text x="724" y="190" font-size="22" font-weight="700" fill="#f1f5f9">2h ago</text>
  <text x="682" y="224" font-size="11" fill="#94a3b8">Most recent session</text>

  <!-- Card 4 -->
  <rect x="868" y="148" width="196" height="88" rx="10" fill="#1e293b" stroke="#334155" stroke-width="1"/>
  <rect x="886" y="162" width="32" height="32" rx="8" fill="#1e1030"/>
  <g transform="translate(893, 169) scale(0.75)" stroke="#7c3aed" stroke-width="2" fill="none" stroke-linecap="round" stroke-linejoin="round">
    <polygon points="5 3 19 12 5 21 5 3"/>
  </g>
  <text x="928" y="172" font-size="10" font-weight="600" fill="#94a3b8">ACTIVE RUNS</text>
  <text x="928" y="190" font-size="22" font-weight="700" fill="#f1f5f9">0</text>
  <text x="886" y="224" font-size="11" fill="#94a3b8">Currently running</text>

  <!-- Recent Workflow Runs card -->
  <rect x="256" y="252" width="828" height="410" rx="10" fill="#1e293b" stroke="#334155" stroke-width="1"/>
  <text x="278" y="278" font-size="15" font-weight="700" fill="#f1f5f9">Recent Workflow Runs</text>
  <text x="278" y="294" font-size="12" fill="#94a3b8">Latest backup and restore activity from GitHub Actions</text>
  <line x1="256" y1="306" x2="1084" y2="306" stroke="#334155" stroke-width="1"/>

  <!-- Search/filter bar -->
  <rect x="278" y="312" width="280" height="28" rx="6" fill="#0f172a" stroke="#334155" stroke-width="1"/>
  <text x="298" y="330" font-size="11" fill="#94a3b8">Search runs...</text>
  <rect x="574" y="312" width="90" height="28" rx="6" fill="#0f172a" stroke="#334155" stroke-width="1"/>
  <text x="619" y="330" font-size="11" fill="#94a3b8" text-anchor="middle">All types</text>
  <rect x="674" y="312" width="80" height="28" rx="6" fill="#0f172a" stroke="#334155" stroke-width="1"/>
  <text x="714" y="330" font-size="11" fill="#94a3b8" text-anchor="middle">All status</text>
  <line x1="256" y1="348" x2="1084" y2="348" stroke="#334155" stroke-width="1"/>

  <!-- Header row -->
  <rect x="256" y="349" width="828" height="28" fill="#162032"/>
  <text x="278" y="367" font-size="11" font-weight="600" fill="#94a3b8">STATUS</text>
  <text x="370" y="367" font-size="11" font-weight="600" fill="#94a3b8">RUN NAME</text>
  <text x="620" y="367" font-size="11" font-weight="600" fill="#94a3b8">WORKFLOW</text>
  <text x="790" y="367" font-size="11" font-weight="600" fill="#94a3b8">TIMESTAMP</text>
  <text x="960" y="367" font-size="11" font-weight="600" fill="#94a3b8">DIFF</text>
  <text x="1022" y="367" font-size="11" font-weight="600" fill="#94a3b8">LINK</text>
  <line x1="256" y1="377" x2="1084" y2="377" stroke="#334155" stroke-width="1"/>

  <!-- Row 1 -->
  <rect x="278" y="386" width="62" height="20" rx="10" fill="#0f2a1a" stroke="#166534" stroke-width="1"/>
  <circle cx="292" cy="396" r="3" fill="#16a34a"/>
  <text x="300" y="400" font-size="11" fill="#4ade80">success</text>
  <text x="370" y="400" font-size="12" fill="#f1f5f9">backup-2026-06-16-nightly</text>
  <text x="620" y="400" font-size="12" fill="#cbd5e1">Backup Repositories</text>
  <text x="790" y="400" font-size="12" fill="#94a3b8">2026-06-16 02:00 UTC</text>
  <rect x="952" y="386" width="40" height="20" rx="4" fill="#0f172a" stroke="#334155" stroke-width="1"/>
  <text x="972" y="400" font-size="10" fill="#cbd5e1" text-anchor="middle">Diff</text>
  <text x="1022" y="400" font-size="12" fill="#2563eb">View -&gt;</text>
  <line x1="256" y1="412" x2="1084" y2="412" stroke="#334155" stroke-width="1"/>

  <!-- Row 2 -->
  <rect x="278" y="421" width="62" height="20" rx="10" fill="#0f2a1a" stroke="#166534" stroke-width="1"/>
  <circle cx="292" cy="431" r="3" fill="#16a34a"/>
  <text x="300" y="435" font-size="11" fill="#4ade80">success</text>
  <text x="370" y="435" font-size="12" fill="#f1f5f9">backup-2026-06-15-nightly</text>
  <text x="620" y="435" font-size="12" fill="#cbd5e1">Backup Repositories</text>
  <text x="790" y="435" font-size="12" fill="#94a3b8">2026-06-15 02:00 UTC</text>
  <rect x="952" y="421" width="40" height="20" rx="4" fill="#0f172a" stroke="#334155" stroke-width="1"/>
  <text x="972" y="435" font-size="10" fill="#cbd5e1" text-anchor="middle">Diff</text>
  <text x="1022" y="435" font-size="12" fill="#2563eb">View -&gt;</text>
  <line x1="256" y1="447" x2="1084" y2="447" stroke="#334155" stroke-width="1"/>

  <!-- Row 3 failure -->
  <rect x="278" y="456" width="58" height="20" rx="10" fill="#2a0f0f" stroke="#7f1d1d" stroke-width="1"/>
  <circle cx="292" cy="466" r="3" fill="#dc2626"/>
  <text x="300" y="470" font-size="11" fill="#f87171">failure</text>
  <text x="370" y="470" font-size="12" fill="#f1f5f9">restore-2026-06-14-manual</text>
  <text x="620" y="470" font-size="12" fill="#cbd5e1">Restore to GitHub</text>
  <text x="790" y="470" font-size="12" fill="#94a3b8">2026-06-14 14:32 UTC</text>
  <rect x="952" y="456" width="40" height="20" rx="4" fill="#0f172a" stroke="#334155" stroke-width="1"/>
  <text x="972" y="470" font-size="10" fill="#cbd5e1" text-anchor="middle">Diff</text>
  <text x="1022" y="470" font-size="12" fill="#2563eb">View -&gt;</text>
  <line x1="256" y1="482" x2="1084" y2="482" stroke="#334155" stroke-width="1"/>

  <!-- Row 4 -->
  <rect x="278" y="491" width="62" height="20" rx="10" fill="#0f2a1a" stroke="#166534" stroke-width="1"/>
  <circle cx="292" cy="501" r="3" fill="#16a34a"/>
  <text x="300" y="505" font-size="11" fill="#4ade80">success</text>
  <text x="370" y="505" font-size="12" fill="#f1f5f9">backup-2026-06-14-nightly</text>
  <text x="620" y="505" font-size="12" fill="#cbd5e1">Backup Repositories</text>
  <text x="790" y="505" font-size="12" fill="#94a3b8">2026-06-14 02:00 UTC</text>
  <rect x="952" y="491" width="40" height="20" rx="4" fill="#0f172a" stroke="#334155" stroke-width="1"/>
  <text x="972" y="505" font-size="10" fill="#cbd5e1" text-anchor="middle">Diff</text>
  <text x="1022" y="505" font-size="12" fill="#2563eb">View -&gt;</text>
  <line x1="256" y1="517" x2="1084" y2="517" stroke="#334155" stroke-width="1"/>

  <!-- Row 5 -->
  <rect x="278" y="526" width="62" height="20" rx="10" fill="#0f2a1a" stroke="#166534" stroke-width="1"/>
  <circle cx="292" cy="536" r="3" fill="#16a34a"/>
  <text x="300" y="540" font-size="11" fill="#4ade80">success</text>
  <text x="370" y="540" font-size="12" fill="#f1f5f9">backup-2026-06-13-nightly</text>
  <text x="620" y="540" font-size="12" fill="#cbd5e1">Backup Repositories</text>
  <text x="790" y="540" font-size="12" fill="#94a3b8">2026-06-13 02:00 UTC</text>
  <rect x="952" y="526" width="40" height="20" rx="4" fill="#0f172a" stroke="#334155" stroke-width="1"/>
  <text x="972" y="540" font-size="10" fill="#cbd5e1" text-anchor="middle">Diff</text>
  <text x="1022" y="540" font-size="12" fill="#2563eb">View -&gt;</text>
</svg>
