<svg xmlns="http://www.w3.org/2000/svg" viewBox="0 0 900 500" width="900" height="500" font-family="'Segoe UI', system-ui, -apple-system, sans-serif">
  <defs>
    <linearGradient id="topbar" x1="0" y1="0" x2="1" y2="0">
      <stop offset="0" stop-color="#2563eb"/>
      <stop offset="1" stop-color="#7c3aed"/>
    </linearGradient>
  </defs>
  <rect x="0" y="0" width="900" height="500" fill="#f8fafc"/>
  <rect x="0" y="0" width="900" height="4" fill="url(#topbar)"/>
  <rect x="0" y="4" width="900" height="44" fill="#ffffff"/>
  <text x="28" y="32" font-size="14" font-weight="700" fill="#1e293b">Dashboard</text>
  <circle cx="848" cy="26" r="12" fill="#2563eb"/>
  <text x="848" y="30" text-anchor="middle" font-size="9" font-weight="700" fill="#ffffff">OR</text>
  <text x="826" y="30" text-anchor="end" font-size="11" font-weight="600" fill="#1e293b">Omar Rao</text>
  <line x1="0" y1="48" x2="900" y2="48" stroke="#e2e8f0"/>

  <!-- Anomaly Warning Banner -->
  <rect x="28" y="62" width="844" height="44" rx="8" fill="#fffbeb" stroke="#fcd34d"/>
  <path d="M50 76 l8 14 H42 Z" fill="#d97706"/>
  <rect x="57" y="80" width="2" height="5" rx="1" fill="#ffffff"/>
  <circle cx="58" cy="88" r="1.2" fill="#ffffff"/>
  <text x="74" y="88" font-size="12" font-weight="600" fill="#92400e">⚠️ Backup size anomaly detected — last session size changed by 28% from the 7-day average. Check repositories.</text>
  <text x="858" y="88" text-anchor="end" font-size="16" fill="#92400e" style="cursor:pointer">×</text>

  <!-- Stat cards -->
  <rect x="28" y="118" width="196" height="74" rx="12" fill="#ffffff" stroke="#e2e8f0"/>
  <rect x="42" y="132" width="44" height="44" rx="10" fill="#dbeafe"/>
  <text x="98" y="148" font-size="11" fill="#64748b">Repositories</text>
  <text x="98" y="172" font-size="22" font-weight="700" fill="#1e293b">5</text>

  <rect x="236" y="118" width="196" height="74" rx="12" fill="#ffffff" stroke="#e2e8f0"/>
  <rect x="250" y="132" width="44" height="44" rx="10" fill="#ede9fe"/>
  <text x="306" y="148" font-size="11" fill="#64748b">Backup Sessions</text>
  <text x="306" y="172" font-size="22" font-weight="700" fill="#1e293b">47</text>

  <rect x="444" y="118" width="196" height="74" rx="12" fill="#ffffff" stroke="#e2e8f0"/>
  <rect x="458" y="132" width="44" height="44" rx="10" fill="#dcfce7"/>
  <circle cx="480" cy="154" r="11" fill="#4ade80"/>
  <path d="M475 154 l3.5 3.5 l6 -7" stroke="#166534" stroke-width="2" fill="none" stroke-linecap="round" stroke-linejoin="round"/>
  <text x="514" y="148" font-size="11" fill="#64748b">Last Backup</text>
  <text x="514" y="172" font-size="19" font-weight="700" fill="#1e293b">2h ago</text>

  <rect x="652" y="118" width="220" height="74" rx="12" fill="#ffffff" stroke="#e2e8f0"/>
  <rect x="666" y="132" width="44" height="44" rx="10" fill="#fef3c7"/>
  <text x="722" y="148" font-size="11" fill="#64748b">Active Runs</text>
  <text x="722" y="172" font-size="22" font-weight="700" fill="#1e293b">0</text>

  <!-- Recent runs card -->
  <rect x="28" y="206" width="844" height="270" rx="12" fill="#ffffff" stroke="#e2e8f0"/>
  <text x="48" y="232" font-size="13" font-weight="700" fill="#1e293b">Recent Workflow Runs</text>
  <line x1="48" y1="244" x2="852" y2="244" stroke="#e2e8f0"/>

  <circle cx="56" cy="272" r="5" fill="#4ade80"/>
  <text x="72" y="276" font-size="12" font-weight="600" fill="#1e293b">backup-2026-06-26-nightly</text>
  <rect x="620" y="261" width="62" height="20" rx="10" fill="#dcfce7" stroke="#4ade80"/>
  <text x="651" y="275" text-anchor="middle" font-size="10" font-weight="700" fill="#166534">Success</text>
  <text x="852" y="276" text-anchor="end" font-size="11" fill="#64748b">2h ago</text>
  <line x1="48" y1="290" x2="852" y2="290" stroke="#e2e8f0"/>

  <circle cx="56" cy="316" r="5" fill="#4ade80"/>
  <text x="72" y="320" font-size="12" font-weight="600" fill="#1e293b">backup-2026-06-25-nightly</text>
  <rect x="620" y="305" width="62" height="20" rx="10" fill="#dcfce7" stroke="#4ade80"/>
  <text x="651" y="319" text-anchor="middle" font-size="10" font-weight="700" fill="#166534">Success</text>
  <text x="852" y="320" text-anchor="end" font-size="11" fill="#64748b">1d ago</text>
  <line x1="48" y1="334" x2="852" y2="334" stroke="#e2e8f0"/>

  <circle cx="56" cy="360" r="5" fill="#dc2626"/>
  <text x="72" y="364" font-size="12" font-weight="600" fill="#1e293b">backup-2026-06-24-nightly</text>
  <rect x="620" y="349" width="54" height="20" rx="10" fill="#fee2e2" stroke="#fca5a5"/>
  <text x="647" y="363" text-anchor="middle" font-size="10" font-weight="700" fill="#b91c1c">Failed</text>
  <text x="852" y="364" text-anchor="end" font-size="11" fill="#64748b">2d ago</text>
</svg>
