<svg xmlns="http://www.w3.org/2000/svg" width="900" height="560" viewBox="0 0 900 560">
  <rect width="900" height="560" fill="#0d1117"/>
  <rect width="230" height="560" fill="#161b22" stroke="#30363d" stroke-width="1"/>
  <text x="20" y="38" font-family="sans-serif" font-size="20" fill="#e6edf3">🗄️</text>
  <text x="50" y="38" font-family="sans-serif" font-size="16" font-weight="700" fill="#e6edf3">GH Backup</text>
  <line x1="0" y1="56" x2="230" y2="56" stroke="#30363d"/>
  <text x="20" y="95" font-family="sans-serif" font-size="14" fill="#8b949e">⊞  Dashboard</text>
  <text x="20" y="135" font-family="sans-serif" font-size="14" fill="#8b949e">⬇  Backup</text>
  <rect x="8" y="148" width="214" height="36" rx="8" fill="#1f6feb"/>
  <text x="42" y="171" font-family="sans-serif" font-size="14" font-weight="600" fill="#fff">Restore</text>
  <text x="20" y="171" font-family="sans-serif" font-size="14" fill="#fff">⬆</text>
  <text x="20" y="215" font-family="sans-serif" font-size="14" fill="#8b949e">↻  Workflow Runs</text>
  <text x="20" y="255" font-family="sans-serif" font-size="14" fill="#8b949e">⚙  Settings</text>
  <rect x="12" y="528" width="130" height="24" rx="12" fill="#21262d"/>
  <circle cx="26" cy="540" r="4" fill="#3fb950"/>
  <text x="36" y="545" font-family="sans-serif" font-size="12" fill="#e6edf3">OmarRao</text>

  <text x="258" y="52" font-family="sans-serif" font-size="22" font-weight="700" fill="#e6edf3">Restore Drive → GitHub</text>
  <rect x="258" y="64" width="622" height="40" rx="8" fill="rgba(31,111,235,0.1)" stroke="rgba(31,111,235,0.3)" stroke-width="1"/>
  <text x="276" y="88" font-family="sans-serif" font-size="13" fill="#8ac5ff">ℹ  Restore runs via GitHub Actions. Select a session and click trigger.</text>

  <!-- Left: backup runs -->
  <rect x="258" y="118" width="298" height="380" rx="8" fill="#161b22" stroke="#30363d" stroke-width="1"/>
  <text x="278" y="146" font-family="sans-serif" font-size="15" font-weight="600" fill="#e6edf3">Recent Backup Runs</text>
  <rect x="278" y="158" width="258" height="320" rx="6" fill="#0d1117" stroke="#30363d" stroke-width="1"/>
  <!-- session rows -->
  <rect x="278" y="158" width="4" height="52" fill="#1f6feb"/>
  <rect x="278" y="158" width="258" height="52" fill="rgba(31,111,235,0.08)"/>
  <text x="296" y="180" font-family="sans-serif" font-size="13" font-weight="500" fill="#e6edf3">Run #7 — backup-2026-06-15</text>
  <text x="296" y="198" font-family="sans-serif" font-size="12" fill="#8b949e">2h ago</text>
  <line x1="278" y1="210" x2="536" y2="210" stroke="#30363d"/>
  <text x="296" y="232" font-family="sans-serif" font-size="13" font-weight="500" fill="#e6edf3">Run #6 — backup-2026-06-14</text>
  <text x="296" y="250" font-family="sans-serif" font-size="12" fill="#8b949e">1d ago</text>
  <line x1="278" y1="262" x2="536" y2="262" stroke="#30363d"/>
  <text x="296" y="284" font-family="sans-serif" font-size="13" font-weight="500" fill="#e6edf3">Run #5 — backup-2026-06-13</text>
  <text x="296" y="302" font-family="sans-serif" font-size="12" fill="#8b949e">2d ago</text>
  <line x1="278" y1="314" x2="536" y2="314" stroke="#30363d"/>
  <text x="296" y="336" font-family="sans-serif" font-size="13" font-weight="500" fill="#e6edf3">Run #4 — backup-2026-06-12</text>
  <text x="296" y="354" font-family="sans-serif" font-size="12" fill="#8b949e">3d ago</text>

  <!-- Right: restore options -->
  <rect x="568" y="118" width="312" height="380" rx="8" fill="#161b22" stroke="#30363d" stroke-width="1"/>
  <text x="588" y="146" font-family="sans-serif" font-size="15" font-weight="600" fill="#e6edf3">Restore Options</text>
  <text x="588" y="172" font-family="sans-serif" font-size="11" font-weight="600" fill="#8b949e">REPOSITORIES (COMMA-SEPARATED, BLANK = ALL)</text>
  <rect x="588" y="180" width="272" height="32" rx="6" fill="#0d1117" stroke="#30363d" stroke-width="1"/>
  <text x="600" y="201" font-family="sans-serif" font-size="13" fill="#8b949e">api-service, frontend-app</text>
  <text x="588" y="232" font-family="sans-serif" font-size="11" font-weight="600" fill="#8b949e">TARGET GITHUB OWNER (BLANK = SELF)</text>
  <rect x="588" y="240" width="272" height="32" rx="6" fill="#0d1117" stroke="#30363d" stroke-width="1"/>
  <text x="600" y="261" font-family="sans-serif" font-size="13" fill="#8b949e">username or org</text>
  <rect x="588" y="286" width="14" height="14" rx="2" fill="#1f6feb"/>
  <text x="610" y="298" font-family="sans-serif" font-size="13" fill="#e6edf3">Restore as private repos</text>
  <!-- Trigger button -->
  <rect x="580" y="456" width="292" height="36" rx="8" fill="#9e6a03"/>
  <text x="650" y="479" font-family="sans-serif" font-size="14" font-weight="600" fill="#fff">↺ Trigger Restore Workflow</text>
</svg>
