<svg xmlns="http://www.w3.org/2000/svg" viewBox="0 0 900 500" width="900" height="500" font-family="'Segoe UI', system-ui, -apple-system, sans-serif">
  <defs>
    <linearGradient id="topbar" x1="0" y1="0" x2="1" y2="0">
      <stop offset="0" stop-color="#2563eb"/>
      <stop offset="1" stop-color="#7c3aed"/>
    </linearGradient>
  </defs>
  <rect x="0" y="0" width="900" height="500" fill="#f8fafc"/>
  <rect x="0" y="0" width="900" height="4" fill="url(#topbar)"/>
  <rect x="0" y="4" width="900" height="44" fill="#ffffff"/>
  <text x="28" y="32" font-size="12" fill="#64748b">Backup</text>
  <text x="100" y="32" font-size="14" font-weight="700" fill="#1e293b">Restore</text>
  <text x="190" y="32" font-size="12" fill="#64748b">Reports</text>
  <text x="265" y="32" font-size="12" fill="#64748b">Settings</text>
  <circle cx="858" cy="26" r="12" fill="#2563eb"/>
  <text x="858" y="30" text-anchor="middle" font-size="9" font-weight="700" fill="#ffffff">OR</text>
  <line x1="0" y1="48" x2="900" y2="48" stroke="#e2e8f0"/>

  <!-- LEFT: Backup Sessions -->
  <rect x="28" y="68" width="400" height="404" rx="12" fill="#ffffff" stroke="#e2e8f0"/>
  <text x="48" y="98" font-size="14" font-weight="700" fill="#1e293b">Backup Sessions</text>
  <text x="408" y="98" text-anchor="end" font-size="10" fill="#64748b">point-in-time</text>
  <line x1="48" y1="110" x2="408" y2="110" stroke="#e2e8f0"/>

  <!-- session rows -->
  <rect x="48" y="124" width="360" height="44" rx="8" fill="#eff6ff" stroke="#2563eb"/>
  <circle cx="68" cy="146" r="5" fill="#16a34a"/>
  <text x="84" y="143" font-size="12" font-weight="600" fill="#1e293b">2026-06-26 02:00</text>
  <text x="84" y="159" font-size="10" fill="#64748b">5 repos · 412 MB</text>
  <text x="396" y="150" text-anchor="end" font-size="10" font-weight="600" fill="#2563eb">selected</text>

  <rect x="48" y="178" width="360" height="44" rx="8" fill="#f8fafc" stroke="#e2e8f0"/>
  <circle cx="68" cy="200" r="5" fill="#16a34a"/>
  <text x="84" y="197" font-size="12" font-weight="600" fill="#1e293b">2026-06-25 02:00</text>
  <text x="84" y="213" font-size="10" fill="#64748b">5 repos · 408 MB</text>

  <rect x="48" y="232" width="360" height="44" rx="8" fill="#f8fafc" stroke="#e2e8f0"/>
  <circle cx="68" cy="254" r="5" fill="#16a34a"/>
  <text x="84" y="251" font-size="12" font-weight="600" fill="#1e293b">2026-06-24 02:00</text>
  <text x="84" y="267" font-size="10" fill="#64748b">5 repos · 401 MB</text>

  <rect x="48" y="286" width="360" height="44" rx="8" fill="#f8fafc" stroke="#e2e8f0"/>
  <circle cx="68" cy="308" r="5" fill="#dc2626"/>
  <text x="84" y="305" font-size="12" font-weight="600" fill="#1e293b">2026-06-23 02:00</text>
  <text x="84" y="321" font-size="10" fill="#64748b">4 repos · 388 MB · 1 failed</text>

  <rect x="48" y="340" width="360" height="44" rx="8" fill="#f8fafc" stroke="#e2e8f0"/>
  <circle cx="68" cy="362" r="5" fill="#16a34a"/>
  <text x="84" y="359" font-size="12" font-weight="600" fill="#1e293b">2026-06-22 02:00</text>
  <text x="84" y="375" font-size="10" fill="#64748b">5 repos · 395 MB</text>

  <!-- RIGHT: Restore Options -->
  <rect x="452" y="68" width="420" height="404" rx="12" fill="#ffffff" stroke="#e2e8f0"/>
  <text x="472" y="98" font-size="14" font-weight="700" fill="#1e293b">Restore Options</text>
  <line x1="472" y1="110" x2="852" y2="110" stroke="#e2e8f0"/>

  <!-- session dropdown -->
  <text x="472" y="136" font-size="11" font-weight="600" fill="#64748b">Session</text>
  <rect x="472" y="146" width="380" height="34" rx="8" fill="#f8fafc" stroke="#e2e8f0"/>
  <text x="486" y="168" font-size="12" fill="#1e293b">2026-06-26 02:00 (5 repos)</text>
  <path d="M832 159 l6 6 l6 -6" stroke="#64748b" stroke-width="2" fill="none" stroke-linecap="round" stroke-linejoin="round"/>

  <!-- Dry-run toggle ON -->
  <text x="472" y="212" font-size="12" font-weight="600" fill="#1e293b">Dry-run</text>
  <text x="472" y="228" font-size="10" fill="#64748b">Simulate restore without writing</text>
  <rect x="800" y="202" width="52" height="28" rx="14" fill="#16a34a"/>
  <circle cx="838" cy="216" r="11" fill="#ffffff"/>
  <text x="784" y="220" text-anchor="end" font-size="10" font-weight="700" fill="#16a34a">ON</text>

  <!-- Repositories field -->
  <text x="472" y="266" font-size="11" font-weight="600" fill="#64748b">Repositories</text>
  <rect x="472" y="276" width="380" height="34" rx="8" fill="#f8fafc" stroke="#e2e8f0"/>
  <text x="486" y="298" font-size="12" fill="#1e293b">webapp-frontend, api-service</text>

  <!-- Target owner -->
  <text x="472" y="338" font-size="11" font-weight="600" fill="#64748b">Target Owner</text>
  <rect x="472" y="348" width="380" height="34" rx="8" fill="#f8fafc" stroke="#e2e8f0"/>
  <text x="486" y="370" font-size="12" fill="#1e293b">veeam-restore-org</text>

  <!-- Trigger button amber -->
  <rect x="472" y="408" width="380" height="44" rx="8" fill="#d97706"/>
  <text x="662" y="435" text-anchor="middle" font-size="13" font-weight="700" fill="#ffffff">Trigger Restore Workflow</text>
</svg>
