<svg width="1100" height="680" viewBox="0 0 1100 680" xmlns="http://www.w3.org/2000/svg" font-family="Inter, system-ui, -apple-system, sans-serif">
  <defs>
    <linearGradient id="brandGrad4" x1="0" y1="0" x2="0" y2="1">
      <stop offset="0%" stop-color="#1a7f37"/>
      <stop offset="100%" stop-color="#0d5c27"/>
    </linearGradient>
  </defs>

  <!-- Page background -->
  <rect width="1100" height="680" fill="#f5f7fa"/>

  <!-- ── SIDEBAR ── -->
  <rect x="0" y="0" width="240" height="680" fill="white" stroke="#e2e6ea" stroke-width="1"/>

  <!-- Brand -->
  <rect x="16" y="18" width="36" height="36" rx="8" fill="url(#brandGrad4)"/>
  <text x="34" y="40" text-anchor="middle" font-size="15" font-weight="800" fill="white">G</text>
  <text x="60" y="33" font-size="14" font-weight="700" fill="#111827">GH Backup</text>
  <text x="60" y="47" font-size="10" fill="#6b7280">Resilience Tool</text>

  <line x1="16" y1="66" x2="224" y2="66" stroke="#e2e6ea" stroke-width="1"/>
  <text x="16" y="86" font-size="10" font-weight="600" fill="#9ca3af" letter-spacing="1">NAVIGATION</text>

  <!-- Dashboard -->
  <rect x="18" y="94" width="20" height="20" rx="4" fill="#f3f4f6"/>
  <g transform="translate(19,95)" stroke="#9ca3af" stroke-width="1.2" fill="none" stroke-linecap="round" stroke-linejoin="round">
    <rect x="0" y="0" width="7.5" height="7.5" rx="1.5"/>
    <rect x="10" y="0" width="7.5" height="7.5" rx="1.5"/>
    <rect x="0" y="10" width="7.5" height="7.5" rx="1.5"/>
    <rect x="10" y="10" width="7.5" height="7.5" rx="1.5"/>
  </g>
  <text x="48" y="108" font-size="13" fill="#374151">Dashboard</text>

  <!-- Backup -->
  <rect x="18" y="120" width="20" height="20" rx="4" fill="#f3f4f6"/>
  <g transform="translate(19,121)" stroke="#9ca3af" stroke-width="1.2" fill="none" stroke-linecap="round" stroke-linejoin="round">
    <path d="M9 14V6m-3.5 3.5L9 13l3.5-3.5"/>
    <path d="M3.5 13A4 4 0 014 5.5a5.5 5.5 0 018.5 0A4 4 0 0113.5 13z"/>
  </g>
  <text x="48" y="134" font-size="13" fill="#374151">Backup</text>

  <!-- Restore -->
  <rect x="18" y="152" width="20" height="20" rx="4" fill="#f3f4f6"/>
  <g transform="translate(19,153)" stroke="#9ca3af" stroke-width="1.2" fill="none" stroke-linecap="round" stroke-linejoin="round">
    <path d="M9 4v8m3.5-3.5L9 5 5.5 8.5"/>
    <path d="M3.5 13A4 4 0 014 5.5a5.5 5.5 0 018.5 0A4 4 0 0113.5 13z"/>
  </g>
  <text x="48" y="166" font-size="13" fill="#374151">Restore</text>

  <!-- Workflow Runs -->
  <rect x="18" y="184" width="20" height="20" rx="4" fill="#f3f4f6"/>
  <g transform="translate(19,185)" stroke="#9ca3af" stroke-width="1.2" fill="none" stroke-linecap="round" stroke-linejoin="round">
    <circle cx="9" cy="9" r="8"/>
    <path d="M9 5v4l2.5 2.5"/>
  </g>
  <text x="48" y="198" font-size="13" fill="#374151">Workflow Runs</text>

  <!-- Settings (active) -->
  <rect x="8" y="210" width="224" height="36" rx="6" fill="#eff6ff"/>
  <rect x="18" y="218" width="20" height="20" rx="4" fill="#2563eb"/>
  <g transform="translate(19,219)" stroke="#2563eb" stroke-width="1.2" fill="none" stroke-linecap="round" stroke-linejoin="round">
    <circle cx="9" cy="9" r="2.5"/>
    <path d="M15.5 11.5a1.4 1.4 0 00.3 1.55l.05.05a1.7 1.7 0 010 2.4 1.7 1.7 0 01-2.4 0l-.05-.05a1.4 1.4 0 00-1.55-.3 1.4 1.4 0 00-.85 1.28V17a1.7 1.7 0 01-3.4 0v-.08a1.4 1.4 0 00-.9-1.28 1.4 1.4 0 00-1.55.3l-.05.05a1.7 1.7 0 01-2.4-2.4l.05-.05A1.4 1.4 0 003.1 12a1.4 1.4 0 00-1.28-.85H1a1.7 1.7 0 010-3.4h.07a1.4 1.4 0 001.28-.9 1.4 1.4 0 00-.3-1.55l-.05-.05a1.7 1.7 0 012.4-2.4l.05.05A1.4 1.4 0 006 3.1a1.4 1.4 0 00.85-1.28V1a1.7 1.7 0 013.4 0v.07a1.4 1.4 0 00.85 1.28 1.4 1.4 0 001.55-.3l.05-.05a1.7 1.7 0 012.4 2.4l-.05.05A1.4 1.4 0 0015.5 6a1.4 1.4 0 001.28.85H17a1.7 1.7 0 010 3.4h-.07a1.4 1.4 0 00-1.28.85z"/>
  </g>
  <text x="48" y="232" font-size="13" font-weight="600" fill="#2563eb">Settings</text>

  <!-- Status pills -->
  <line x1="16" y1="558" x2="224" y2="558" stroke="#e2e6ea" stroke-width="1"/>
  <rect x="16" y="568" width="138" height="22" rx="11" fill="#f0fdf4" stroke="#bbf7d0" stroke-width="1"/>
  <circle cx="30" cy="579" r="4" fill="#16a34a"/>
  <text x="40" y="583" font-size="11" fill="#15803d">GitHub: OmarRao</text>
  <rect x="16" y="596" width="128" height="22" rx="11" fill="#f0fdf4" stroke="#bbf7d0" stroke-width="1"/>
  <circle cx="30" cy="607" r="4" fill="#16a34a"/>
  <text x="40" y="611" font-size="11" fill="#15803d">Drive: connected</text>

  <!-- Author -->
  <line x1="16" y1="628" x2="224" y2="628" stroke="#e2e6ea" stroke-width="1"/>
  <text x="16" y="644" font-size="12" font-weight="600" fill="#111827">Omar Rao</text>
  <text x="16" y="657" font-size="10" fill="#6b7280">Engineer - Data Resilience</text>
  <rect x="16" y="662" width="54" height="14" rx="3" fill="#eff6ff" stroke="#bfdbfe" stroke-width="1"/>
  <text x="43" y="672" text-anchor="middle" font-size="9" fill="#2563eb">LinkedIn</text>
  <rect x="76" y="662" width="52" height="14" rx="3" fill="#f0fdf4" stroke="#bbf7d0" stroke-width="1"/>
  <text x="102" y="672" text-anchor="middle" font-size="9" fill="#15803d">Substack</text>

  <!-- ── MAIN CONTENT ── -->
  <text x="276" y="40" font-size="20" font-weight="700" fill="#111827">Settings &amp; Setup</text>
  <text x="276" y="58" font-size="13" fill="#6b7280">Configure your GitHub and Google Drive connections to enable automated backups.</text>

  <!-- Tab bar -->
  <rect x="276" y="72" width="808" height="42" rx="8" fill="white" stroke="#e2e6ea" stroke-width="1"/>
  <!-- Active tab: GitHub -->
  <rect x="277" y="73" width="130" height="40" rx="7" fill="white"/>
  <line x1="277" y1="110" x2="407" y2="110" stroke="#2563eb" stroke-width="2"/>
  <text x="342" y="97" text-anchor="middle" font-size="13" font-weight="600" fill="#2563eb">GitHub</text>
  <!-- Other tabs -->
  <text x="480" y="97" text-anchor="middle" font-size="13" fill="#6b7280">Google Drive</text>
  <text x="620" y="97" text-anchor="middle" font-size="13" fill="#6b7280">Actions Secrets</text>
  <text x="766" y="97" text-anchor="middle" font-size="13" fill="#6b7280">Setup Guide</text>

  <!-- Main settings card -->
  <rect x="276" y="126" width="808" height="360" rx="10" fill="white" stroke="#e2e6ea" stroke-width="1"/>
  <text x="296" y="158" font-size="15" font-weight="700" fill="#111827">GitHub Connection</text>
  <text x="296" y="174" font-size="12" fill="#6b7280">Token stored in localStorage. Never sent to any server - all operations run client-side.</text>
  <line x1="276" y1="186" x2="1084" y2="186" stroke="#e2e6ea" stroke-width="1"/>

  <!-- PAT field -->
  <text x="296" y="214" font-size="12" font-weight="600" fill="#374151">Personal Access Token (PAT)</text>
  <text x="296" y="230" font-size="11" fill="#6b7280">Requires scopes: repo, read:org, workflow</text>
  <rect x="296" y="238" width="544" height="36" rx="6" fill="#f9fafb" stroke="#e2e6ea" stroke-width="1"/>
  <!-- Masked dots -->
  <circle cx="316" cy="256" r="4" fill="#374151"/>
  <circle cx="330" cy="256" r="4" fill="#374151"/>
  <circle cx="344" cy="256" r="4" fill="#374151"/>
  <circle cx="358" cy="256" r="4" fill="#374151"/>
  <circle cx="372" cy="256" r="4" fill="#374151"/>
  <circle cx="386" cy="256" r="4" fill="#374151"/>
  <circle cx="400" cy="256" r="4" fill="#374151"/>
  <circle cx="414" cy="256" r="4" fill="#374151"/>
  <circle cx="428" cy="256" r="4" fill="#374151"/>
  <circle cx="442" cy="256" r="4" fill="#374151"/>
  <circle cx="456" cy="256" r="4" fill="#374151"/>
  <circle cx="470" cy="256" r="4" fill="#374151"/>
  <circle cx="484" cy="256" r="4" fill="#374151"/>
  <circle cx="498" cy="256" r="4" fill="#374151"/>
  <circle cx="512" cy="256" r="4" fill="#374151"/>
  <circle cx="526" cy="256" r="4" fill="#374151"/>
  <circle cx="540" cy="256" r="4" fill="#374151"/>
  <circle cx="554" cy="256" r="4" fill="#374151"/>
  <circle cx="568" cy="256" r="4" fill="#374151"/>
  <!-- Show/hide icon area -->
  <text x="828" y="260" text-anchor="middle" font-size="11" fill="#6b7280">show</text>

  <!-- Username field -->
  <text x="296" y="298" font-size="12" font-weight="600" fill="#374151">GitHub Username</text>
  <rect x="296" y="306" width="544" height="36" rx="6" fill="#f9fafb" stroke="#e2e6ea" stroke-width="1"/>
  <text x="314" y="328" font-size="12" fill="#111827">OmarRao</text>

  <!-- Buttons -->
  <rect x="296" y="360" width="168" height="38" rx="7" fill="#2563eb"/>
  <text x="380" y="382" text-anchor="middle" font-size="13" font-weight="600" fill="white">Save &amp; Connect</text>
  <rect x="474" y="360" width="80" height="38" rx="7" fill="white" stroke="#e2e6ea" stroke-width="1"/>
  <text x="514" y="382" text-anchor="middle" font-size="13" fill="#374151">Clear</text>

  <!-- Success notice -->
  <rect x="276" y="502" width="808" height="44" rx="8" fill="#f0fdf4" stroke="#bbf7d0" stroke-width="1"/>
  <circle cx="300" cy="524" r="8" fill="#16a34a"/>
  <line x1="296" y1="524" x2="300" y2="528" stroke="white" stroke-width="2"/>
  <line x1="300" y1="528" x2="308" y2="520" stroke="white" stroke-width="2"/>
  <text x="320" y="521" font-size="13" font-weight="600" fill="#15803d">Connected as OmarRao</text>
  <text x="320" y="537" font-size="11" fill="#16a34a">Token validated - 12 repositories accessible, workflows enabled</text>

  <!-- Info card below -->
  <rect x="276" y="560" width="808" height="96" rx="10" fill="white" stroke="#e2e6ea" stroke-width="1"/>
  <text x="296" y="584" font-size="13" font-weight="700" fill="#111827">How to create a GitHub PAT</text>
  <text x="296" y="602" font-size="12" fill="#6b7280">1. Go to GitHub Settings - Developer settings - Personal access tokens - Tokens (classic)</text>
  <text x="296" y="618" font-size="12" fill="#6b7280">2. Click Generate new token and select scopes: repo, read:org, workflow</text>
  <text x="296" y="634" font-size="12" fill="#6b7280">3. Copy the generated token and paste it into the field above, then click Save &amp; Connect</text>
</svg>
