<svg xmlns="http://www.w3.org/2000/svg" viewBox="0 0 900 500" width="900" height="500" font-family="Inter, system-ui, sans-serif">
  <defs>
    <linearGradient id="topbar" x1="0" y1="0" x2="1" y2="0">
      <stop offset="0" stop-color="#2563eb"/>
      <stop offset="1" stop-color="#7c3aed"/>
    </linearGradient>
  </defs>
  <rect x="0" y="0" width="900" height="500" fill="#f8fafc"/>
  <rect x="0" y="0" width="900" height="4" fill="url(#topbar)"/>
  <rect x="0" y="4" width="900" height="44" fill="#ffffff"/>
  <text x="28" y="32" font-size="12" fill="#64748b">Backup</text>
  <text x="100" y="32" font-size="12" fill="#64748b">Restore</text>
  <text x="177" y="32" font-size="12" fill="#64748b">Reports</text>
  <text x="252" y="32" font-size="14" font-weight="700" fill="#1e293b">Settings</text>
  <circle cx="858" cy="26" r="12" fill="#2563eb"/>
  <text x="858" y="30" text-anchor="middle" font-size="9" font-weight="700" fill="#ffffff">OR</text>
  <line x1="0" y1="48" x2="900" y2="48" stroke="#e2e8f0"/>

  <!-- tab strip -->
  <text x="48" y="86" font-size="13" font-weight="700" fill="#2563eb">Google Drive</text>
  <rect x="44" y="96" width="92" height="3" rx="2" fill="#2563eb"/>
  <text x="160" y="86" font-size="13" fill="#64748b">Storage</text>
  <text x="250" y="86" font-size="13" fill="#64748b">SLA</text>
  <text x="320" y="86" font-size="13" fill="#64748b">Access Control</text>
  <text x="450" y="86" font-size="13" fill="#64748b">Security</text>
  <line x1="28" y1="99" x2="872" y2="99" stroke="#e2e8f0"/>

  <!-- Google Drive panel -->
  <rect x="28" y="120" width="844" height="170" rx="12" fill="#ffffff" stroke="#e2e8f0"/>
  <text x="48" y="150" font-size="14" font-weight="700" fill="#1e293b">Connected Account</text>
  <line x1="48" y1="162" x2="852" y2="162" stroke="#e2e8f0"/>
  <!-- account row -->
  <circle cx="68" cy="200" r="18" fill="#2563eb"/>
  <text x="68" y="205" text-anchor="middle" font-size="13" font-weight="700" fill="#ffffff">OR</text>
  <text x="98" y="196" font-size="13" font-weight="600" fill="#1e293b">Omar Rao</text>
  <text x="98" y="214" font-size="11" fill="#64748b">omar.rao@veeam.com</text>
  <rect x="744" y="184" width="108" height="32" rx="8" fill="#dcfce7"/>
  <circle cx="766" cy="200" r="4" fill="#16a34a"/>
  <text x="778" y="204" font-size="11" font-weight="600" fill="#16a34a">Connected</text>
  <!-- quota bar -->
  <text x="48" y="254" font-size="11" font-weight="600" fill="#64748b">Storage Quota</text>
  <text x="852" y="254" text-anchor="end" font-size="11" fill="#64748b">14.2 GB of 100 GB used</text>
  <rect x="48" y="262" width="804" height="14" rx="7" fill="#e2e8f0"/>
  <rect x="48" y="262" width="113" height="14" rx="7" fill="#2563eb"/>

  <!-- Backup Folder ID -->
  <rect x="28" y="306" width="844" height="120" rx="12" fill="#ffffff" stroke="#e2e8f0"/>
  <text x="48" y="336" font-size="14" font-weight="700" fill="#1e293b">Backup Folder</text>
  <line x1="48" y1="348" x2="852" y2="348" stroke="#e2e8f0"/>
  <text x="48" y="376" font-size="11" font-weight="600" fill="#64748b">Backup Folder ID</text>
  <rect x="48" y="386" width="690" height="34" rx="8" fill="#f8fafc" stroke="#e2e8f0"/>
  <text x="62" y="408" font-size="12" fill="#1e293b">1A2b3C4d5E6f7G8h9I0jKlMnOpQrStUv</text>
  <rect x="748" y="386" width="104" height="34" rx="8" fill="#2563eb"/>
  <text x="800" y="408" text-anchor="middle" font-size="12" font-weight="700" fill="#ffffff">Save</text>
</svg>
